<?xml version="1.0" encoding="UTF-8"?>
<svg fill="none" viewBox="0 0 366 156" xmlns="http://www.w3.org/2000/svg">
<path d="m202.14 154.38c0.019-3.879 0.852-7.89 0.956-11.747 0.156-5.861 0.557-7.438-5.543-8.59-6.301-1.194-13.119-1.05-19.476-1.976-2.651-13.013-6.031-26.975-15.224-36.976-8.585-9.3413-22.071-14.229-33.914-17.941-0.671-3.81-1.739-7.5855-2.203-11.436-0.138-1.137-0.517-2.5536-0.294-3.6372 0.257-1.269 1.924-2.8143 2.171-4.256 8.344 0.936 14.146-8.2451 10.368-15.586 1.548-2.3055 3.744-5.4088 4.762-8.0001 2.729-6.9572 0.05-12.159-5.47-16.465 0.993-0.7381 4.333 1.7809 4.693 1.4103-0.019-1.9631-2.776-2.7389-4.383-2.8237-0.125-0.1194 0.887-2.6699 0.915-3.3201 0.044-0.9988-0.332-2.4311-1.382-1.382-0.316 1.024-0.345 2.3463-0.752 3.3232-0.166 0.3957 0.132 0.5559-0.655 0.4366-0.924-12.969-18.705-18.215-29.12-13.959-0.88 0.35807-2.149 1.5391-3.042 1.6616-1.347 0.18532-5.8467-1.1056-7.7485-1.203-5.5803-0.29211-14.92 2.8771-15.798 9.2942-0.3039 2.2207-1.1342 6.1155-0.9305 8.0974 0.0908 0.8984 0.7175 1.9726 0.5984 2.8395-0.1002 0.7318-2.5159 3.031-2.9264 4.6204-1.529 5.905 3.7567 11.056 9.4905 10.61 1.5384 12.781-0.7802 31.846 16.537 33.621l1.639 7.9215c-7.21 3.2447-15.927 7.6515-21.767 13.048-3.7974 3.5085-6.4324 8.666-9.4027 12.847-0.3259 0.012-0.871-2.268-1.0058-2.749-3.2209-11.263-5.411-24.261-9.08-35.132-1.7076-5.0602-5.2638-3.3766-9.3401-3.5054-16.656-0.5277-33.391-0.2795-50.091-0.3392-2.7635 0.2356-4.8941 1.2721-4.7155 4.4099l6.3761 21.18c-2.2528 1.6427-4.6466 4.4507-3.9322 7.4535 0.15039 0.6282 0.80211 1.0491 0.87731 1.6522 0.09399 0.7412-0.38226 1.426-0.25693 2.3999 0.1974 1.561 1.6293 2.384 1.7702 2.971 0.141 0.588-0.43551 1.41-0.11906 2.613 0.45118 1.728 2.0867 2.108 2.516 2.818 0.67678 1.118-0.61725 2.51 1.4005 4.243 1.6105 1.386 3.3745 0.933 4.3897 1.565 0.2976 0.185 0.777 1.432 1.413 2.032 1.0685 1.008 3.3463 2.604 4.6215 3.524 0.8335 0.6 1.7797 1.077 2.6915 1.542 0.5263 0.902-2.2434 2.447 0.0501 5.434 0.3916 0.509 2.7572 2.701 2.8011 2.896 0.3446 1.593-0.4105 3.876 0.6736 5.541l12.169 18.704h-28.65c-0.25692 0-0.62663 0.779-0.4637 1.093l1.0747 0.49c53.863 0.101 107.73-0.179 161.59-0.031 8.826 0.025 17.737 0.531 26.61 0.342 3.259-0.069 8.244 0.041 11.274-0.311 0.921-0.106 1.2-0.257 1.081-1.272h-7.827l3e-3 3e-3zm-109.74-151.2c1.3911-0.18846 3.105 0.13506 4.54 0l-9.8007 4.4539c-2.1024 1.1496-3.6721 2.8646-5.2231 4.6456 0.3259-4.5702 6.3479-8.5372 10.487-9.0963l-0.0031-0.00314zm1.7264 27.923c4.8376-3.0531 5.6617-9.7905 9.3871-13.805 1.432 5.1574 4.336 9.9255 8.456 13.333-1.334 0.2513-4.085 0.1382-4.248 2.0165-0.138 1.6114 4.305 0.49 5.633 0.6753 1.783 0.2513 5.18 1.4669 7.056 2.026 1.536 0.4554 2.19-0.4083 2.488 1.8971 0.241 1.8689-0.711 5.8611 1.582 6.5772 2.792 0.8732 3.058-2.3463 4.725-3.455 3.954-2.629 8.93 1.4637 9.378 5.6286 0.561 5.2235-3.155 9.9129-8.378 10.431-0.771 0.0754-1.42-0.4963-2.266-0.0848-0.379 0.1853-2.939 4.8026-3.061 5.4119-0.254 1.2533 0.426 4.6455 0.649 6.1092 0.241 1.5862 2.337 10.29 2.181 10.821-0.815 2.7452-7.26 7.441-9.892 8.6157-5.746 2.5662-13.112 2.6007-12.11-5.7009h1.257c-0.455-3.7377 0.247-2.7515 2.346-4.3879 2.447-1.9097 5.853-5.4936 7.617-8.0535 0.733-1.0616 1.755-2.2175 1.617-3.5524-2.137 0.2952-3.907 1.8123-6.094 2.519-14.115 4.5576-20.679-3.0562-22.359-16.204-0.7113-5.5627-0.9682-11.461-1.2909-17.056 0.8115-0.1602 1.2313 0.669 2.0021 0.6313 0.8428-0.0408 2.3593-1.2941 3.5468-1.4982 1.6669-0.2859 4.5024 0.9768 4.4962-0.8607-0.0094-1.9442-2.6382-1.6521-3.9479-1.7244-0.3509-0.0188-0.8585 0.2073-0.7739-0.3109h0.0032zm-33.065 34.928c-7.1656 8.9047-16.28 16.924-23.449 25.929l-1.8987 1.5799c-0.6235 0.0565-2.2465-1.1213-2.8732-1.5139-10.095-6.3071-19.658-14.549-29.668-21.095-1.5039-1.583-2.8638-4.9345-0.1786-6.128l56.228-0.1539c0.6141 0.0376 1.7797 0.179 2.187 0.6313 0.5984 0.6627-0.2193 0.5842-0.3509 0.7475l0.0031 0.0032zm12.395 42.551-30.987-19.631 19.724-22.401 11.264 42.033zm-70.444-35.76 25.335 17.753c-3.6063 7.5478-9.0831 14.496-12.862 21.874-0.141 0.277-0.9118 1.301-0.1003 1.461 0.6361 0.126 1.8142-2.013 2.162-2.535 3.9572-5.965 7.7108-12.806 11.402-19.009 0.1911-0.3235 0.3634-0.6533 0.3697-1.0397 2.2966 0.98 4.2956 3.9796 7.0309 3.4457 1.4382-0.2827 4.4398-4.8937 5.0131-4.9377l29.75 18.742-4.0543-0.292c-4.3708 1.222 0.3948 4.341 0.401 4.841 0 0.323-1.8862 2.161-0.2632 3.605-5.0601-0.059-10.136 0.085-15.199 0.016-0.7395-9e-3 -1.4256-0.33-2.1651-0.339-10.058-0.145-21.801 0.546-31.645-0.289-3.5718-0.305-3.9509-2.343-4.8-5.443 2.1901-1.941 6.3729-5.642 2.7822-8.214 1.9364-1.765 4.3239-3.9388 1.5666-6.2725 4.1171-4.0896-0.5953-6.3982-4.7029-4.5513 1.2971-1.5171 3.4559-2.7013 2.751-5.1073-0.9024-3.0781-6.8022 0.267-8.3845 1.3444l-4.3865-15.055v0.0031zm101.13 8.4681c-0.307 3.0562 0.329 6.8913 3.44 8.3142 7.024 3.2132 18.843-4.1493 21.616-10.827l3.741 1.4103c-4.675 6.7751-11.555 12.837-20.175 13.346-7.714 0.4555-10.819-3.4017-11.16-10.836l0.228-0.4994 2.31-0.9077zm40.703 62.11h5.793c2.096 0 5.198 1.721 7.238 2.164 0.909 0.194 0.439-0.864-0.285-1.288-1.141-0.669-6.041-2.13-7.266-2.13h-6.107c0.564-9.099-0.551-17.731 2.501-26.513 2.328-6.703 6.614-14.395 13.319-17.401-0.182-1.3883-2.084-0.1696-2.876 0.2576-8.573 4.6302-14.103 20.504-13.884 29.852-0.454 0.072-0.432-0.553-0.526-0.877-1.053-3.684-0.595-8.179-0.724-11.979-0.849-0.977-1.244 3.197-1.262 3.593-0.304 5.757 1.707 10.459 2.202 15.702 0.245 2.585-0.404 5.113-0.31 7.683-0.501 0.493-5.768-1.241-6.746-1.558-7.259-2.362-14.553-6.732-21.823-8.563-1.641-0.414-3.615-0.286-4.715-0.609-0.357-0.107-2.253-1.938-2.939-2.387-1.313-0.861-2.948-2.152-4.327-0.694-2.2025-3.396-2.9639-7.526-4.9127-11.066-0.7614-1.382-6.3792-9.313-7.3662-9.583-1.5384-0.424-2.4439 1.332-2.5974 2.613-0.3854 3.166 1.1373 5.242 2.1963 8.006l-7.9834-4.702c-0.5107-0.838 0.4794-5.446 0.4888-6.765 0.0094-1.216-1.1029-1.778-1.4883-0.22-0.4668 1.878-0.3947 4.108-0.4073 6.037-0.166 0.188-4.3395-1.926-4.5275-2.205-0.3979-0.597-0.8835-3.342-0.6579-4.077 0.3384-1.099 3.434-5.431 4.305-6.678 4.327-6.1719 8.0022-9.2469 14.372-13.208 1.4131-0.8794 5.0382-3.2226 6.398-3.6278 0.6356-0.1885 0.3916 0.1633 0.4516 0.4712 1.193 6.2317 2.014 10.544 9.55 11.141 10.746 0.8544 18.517-6.0558 24.498-14.087 0.733-0.2073 4.214 1.2156 5.186 1.5988 24.313 9.5925 31.125 22.405 36.451 47.234 1.727 8.051 3.19 16.267 2.466 24.547h-78.618c-0.6109-0.069-1.6355-2.148-1.6449-2.745-0.0031-0.336 2.7882-4.972 3.2462-5.717 2.503-4.092 5.495-7.899 7.942-12.03 0.897-0.907 2.739-0.185 3.904 0.107 5.991 1.492 12.12 4.909 17.951 7.111 4.818 1.822 9.785 3.104 14.641 4.778 1.332 0.458 8.532 3.747 9.23 3.141l-0.648-1.071-9.682-4.26-6e-3 4e-3zm-131.08-56.749c0.9431 0.2984 0.4449 1.8218-0.1066 2.3306-3.0016 2.0825-5.6147 4.6204-8.4565 6.8976-0.30705 0.2482-0.44178 0.7193-0.95249 0.3236-1.8799-1.4575 1.4945-5.1387 2.6789-6.1218 1.0089-0.8387 5.7463-3.7723 6.8335-3.43h0.0032zm2.5535 5.77c1.6826 0.0346 1.8956 1.5328 0.7959 2.5285l-11.602 6.8941c-2.7948-3.2757 1.4977-5.8356 4.1766-7.1202 1.2407-0.5968 5.4643-2.3275 6.6298-2.3024zm0.3572 7.5792-8.5442 7.2994c-2.4721-1.407-2.6288-3.087-0.58905-5 0.92117-0.864 6.8461-4.4101 7.9082-4.63 2.2121-0.4554 2.5317 0.8009 1.2251 2.3306zm-7.3129 11.628c-2.7823-3.273 5.8528-8.368 6.7959-7.438 0.6925 2.421-4.2361 5.063-4.5713 6.263-0.2162 0.763 0.5765 1.501 0.8178 2.202-0.2914 0.226-2.6915-0.616-3.0393-1.027h-0.00313zm79.753-2.105c0.6047-0.157 0.6015 0.242 0.8804 0.525 1.4507 1.47 5.0288 6.756 6.0565 8.675 1.9363 3.618 2.8575 7.808 4.9632 11.373l-7.0719 11.443c-4.2925-2.158-8.7197-4.13-12.871-6.552-3.0925-1.806-7.3881-3.92-8.397-7.585l5.3766 3.407c2.2559-0.939-2.1024-2.877-3.0016-3.59-2.2716-1.796-4.7343-3.92-5.0351-7.029 2.4596 1.495 5.8999 5.801 8.4597 6.734 0.3572 0.129 0.6642 0.267 1.0559 0.151l0.4982-0.767c-2.3719-1.887-4.963-3.599-7.2064-5.644-0.8648-0.788-5.7588-5.333-4.6904-6.433 0.4449-0.088 0.7707 0.079 1.1624 0.245 3.7943 1.602 9.149 6.882 12.596 8.082 0.9431 0.33 1.2627 0.138 0.8992-0.901-0.3258-0.93-11.104-7.422-12.878-8.742-1.0747-0.801-2.1493-1.586-3.0298-2.613-0.1316-0.7 0.3102-0.446 0.7833-0.474 2.7666-0.164 9.3714 3.439 12.06 4.862s6.9714 4.652 9.4717 5.566c0.73 0.267 1.341 0.308 2.1055 0.245 0.1128-3.992-3.9133-6.719-2.1901-10.978h0.0032zm-70.76 7.843c3.9792-0.028 7.9584-0.11 11.894 0.465l-5.7463 4.203-1.7954-1.665-4.3551-3.003h0.0031zm59.174 36.699h-38.04c-2.9296-4.118-5.5677-8.433-8.3531-12.645-2.3844-3.603-6.257-6.841-4.6622-11.688 3.7316-2.839 7.6387-5.782 10.828-9.228 1.7358-1.875 1.4476-3.584 4.8596-2.679 2.5755 0.684 10.12 10.67 12.505 13.192 3.6 3.807 7.6575 6.596 10.474 11.15 0.4292 0.694 2.2653 4.655 2.5285 4.674 0.9243 0.063-0.2288-2.528-0.3165-2.811l-3.2805-5.651c0.3102-0.311 2.2779 1.279 2.6507 1.577 0.8303 0.663 1.9113 2.701 2.9766 1.401-0.9149-0.82-1.7233-1.888-2.6632-2.66-1.3849-1.138-4.9599-2.746-5.7871-3.616-0.1786-0.188-0.3728-0.314-0.3258-0.619l7.8392-13.342c-0.3916 1.708 1.692 3.232 2.0554 4.375 0.2413 0.757 0.1034 1.614 0.351 2.472 1.0684 3.703 4.5431 5.22 7.2408 7.488l-0.8773 18.604-0.0031 6e-3zm-44.46-36.388h4.3833c-0.4512 1.184-1.5071 1.929-2.3499 2.818l-2.0334-2.818zm12.21 0.317 22.546 0.471-8.2998 15.206-14.247-15.677zm-13.351 0.647 2.3875 2.645-2.6601 2.274-2.2685-2.905 2.5411-2.014zm-1.3661 6.245-2.6632 1.828-2.2841-3.239 2.6037-2.029 2.3342 2.99 0.0094 0.45zm-8.1401 9e-3 2.1839-0.942 2.0522 3.766c-0.3979 0.333-0.7614 1.134-1.4193 0.801-0.1692-0.085-2.2998-2.535-2.5097-2.84-0.1849-0.267-0.4355-0.311-0.3071-0.785zm80.815 5.61c-0.238-0.409 0.035-0.958 0.433-1.213 0.654 0.509 4.646 2.972 4.54 3.597-0.119 0.703-0.708 0.257-1.028 0.097-0.467-0.235-3.829-2.277-3.945-2.478v-3e-3zm-2.227 3.48c-0.176-0.239 0.924-2.591 1.666-2.463l4.587 2.934-1.41 2.051-4.847-2.522h4e-3zm99.567 20.394h-20.664c0.849-6.822-0.056-13.867-1.57-20.542-9e-3 -0.279 1.081-0.182 1.429-0.175 4.763 0.084 11.793 0.857 16.537 1.627 2.792 0.452 5.587 0.625 5.533 4.177l-1.262 14.913h-3e-3zm-102.03-16.358 1.5322-3.405 4.941 2.978-2.287 3.292-4.1862-2.865zm-19.767 16.044 1.2564-17.878 12.696 6.577c0.3509 0.55-1.3128 2.328-1.5353 3.207-0.4167 1.671 1.9332 3.443 3.1363 4.272 0.5609 0.389 1.927 0.769 2.2152 1.074 0.3196 0.336 0.7896 2.152 1.0183 2.745h-18.787v3e-3zm19.185-15.01 4.271 2.933-2.6323 3.917-4.5118-3.6c0.8585-0.662 1.7577-3.53 2.8731-3.25zm-3.3713 4.35 4.1766 3.647-1.7108 2.908c-1.1906-0.634-4.023-2.076-4.3833-3.417-0.1911-0.713 1.5039-2.359 1.9175-3.138z" fill="#000"/>
<path d="m55.302 39.249c0.8867 0.1633 0.5139-0.2136 0.705-0.6879 0.3885-0.9705 0.7238-2.0322 0.8616-3.075l5.2983 2.5348c0.5859 0.8229-3.4654 5.7134-2.3311 7.196l1.6324 0.8732c0.6705 0.0094 1.1029-0.7162 1.0496-1.335-0.1034-1.1401-1.9238-1.3726-1.8831-1.5736 0.3604-1.6867 2.5003-4.2623 2.7541-5.7323 0.0909-0.5339 0.141-0.7507-0.2569-1.181-0.7833-0.8512-4.4304-1.8029-5.4862-2.9148-1.0653 0.0785-2.1275 4.8968-2.3437 5.8956z" fill="#F4655D"/>
<path d="m48.453 39.84c0.0877 0.157 2.5818 1.4229 3.0768 1.3067 0.2507 1.4103-2.1149 5.5909-0.0783 6.2003l1.3567-0.0911 0.26-0.9015c-0.3289-0.7695-1.0621-0.892-1.8392-0.8355l1.1123-5.346-3.1614-1.5547c-0.6298-0.0157-0.9995 0.7318-0.7269 1.2218z" fill="#F4655D"/>
<path d="m94.129 31.098c-0.0846 0.5151 0.4231 0.2889 0.774 0.3109 1.3097 0.0722 3.9384-0.2199 3.9478 1.7244 0.0063 1.8375-2.8292 0.5748-4.4961 0.8606-1.1875 0.2042-2.704 1.4575-3.5468 1.4983-0.7708 0.0377-1.1937-0.7915-2.0021-0.6314 0.3227 5.591 0.5796 11.493 1.2909 17.056 1.6794 13.148 8.2434 20.765 22.358 16.204 2.187-0.7067 3.957-2.2238 6.094-2.5191 0.138 1.335-0.883 2.4908-1.617 3.5525-1.764 2.5568-5.169 6.1406-7.616 8.0535-2.096 1.6364-2.801 0.6533-2.347 4.3942h-1.257c-1.002 8.2985 6.364 8.2639 12.11 5.6977 2.632-1.1747 9.077-5.8705 9.892-8.6157 0.157-0.5277-1.94-9.2345-2.181-10.821-0.222-1.4668-0.905-4.8559-0.648-6.1092 0.125-0.6093 2.682-5.2297 3.061-5.4119 0.846-0.4114 1.497 0.1634 2.265 0.0848 5.223-0.5214 8.939-5.2077 8.378-10.431-0.445-4.1649-5.423-8.2576-9.377-5.6286-1.667 1.1088-1.934 4.3283-4.725 3.4551-2.294-0.7162-1.341-4.7084-1.583-6.5772-0.3-2.3087-0.955-1.4418-2.487-1.8972-1.877-0.5591-5.274-1.7747-7.056-2.0259-1.326-0.1854-5.772 0.936-5.634-0.6753 0.163-1.8784 2.914-1.7653 4.249-2.0166-4.117-3.4079-7.025-8.1759-8.457-13.333-3.7252 4.0173-4.5492 10.752-9.3869 13.805l-0.0032-0.0031zm16.672 8.8638c3.352-2.1107 4.129 4.7146 1.805 5.437-2.325 0.7225-3.206-3.945-1.805-5.437zm-14.708 0.5842c1.8831 0.5246 2.0742 6.0307-0.8553 5.6161-2.2152-0.3141-2.0429-6.4233 0.8553-5.6161zm7.7265 10.01c0.335 1.8972-1.902 1.1653-2.641 0.289-0.978-1.1622-0.104-5.9773 0.191-7.6294 0.091-0.512 0.276-2.2992 0.742-2.3966 0.871-0.1822 0.799 1.2564 0.803 1.7307 0.015 1.5767-1.188 5.8296-0.922 6.8285 0.173 0.647 1.204 1.071 1.827 1.181v-0.0032zm24.749 0.6125c-0.263-1.3443 1.849-2.4971 2.052-3.4205 0.154-0.6942-1.065-1.2878-0.802-2.3746 0.314-1.2909 1.673 1.181 2.303 1.0711l3.021-2.3463 0.617 0.6439-2.76 2.8677c-0.182 0.9549 1.964 2.4374 1.359 3.565-0.802 1.2878-2.071-2.0887-2.519-2.1987-1.472 0.4052-1.416 2.6165-3.274 2.1924h3e-3zm-17.85 5.3366c0.113 0.7287-0.119 0.9705-0.639 1.3945-1.983 1.6177-7.451 2.6102-9.832 1.7244-0.9774-0.3643-1.1936-1.2563-0.2787-1.5233 0.4547-0.1319 3.3717 0.3957 4.6117 0.2512 2.194-0.2544 4.036-1.6364 6.138-1.8468z" fill="#fff"/>
<path d="m3.0152 72.817 4.3866 15.055c1.5823-1.0774 7.482-4.4225 8.3844-1.3443 0.705 2.406-1.4569 3.5901-2.751 5.1072 4.1077-1.8438 8.82 0.4617 4.703 4.5513 2.7572 2.3369 0.3697 4.5074-1.5666 6.2724 3.5938 2.573-0.5922 6.273-2.7823 8.214 0.8491 3.1 1.2282 5.138 4.8001 5.443 9.8476 0.836 21.588 0.145 31.645 0.289 0.7394 9e-3 1.4256 0.33 2.165 0.339 5.0633 0.069 10.139-0.075 15.199-0.015-1.623-1.445 0.2663-3.283 0.2632-3.606-0.0032-0.5-4.7719-3.619-0.4011-4.841l4.0544 0.293-29.75-18.743c-0.5765 0.0408-3.5781 4.6549-5.0131 4.9376-2.7353 0.534-4.7343-2.4625-7.031-3.4457-0.0062 0.3864-0.1785 0.7162-0.3697 1.0397-3.6909 6.2066-7.4445 13.044-11.402 19.009-0.3478 0.522-1.5259 2.661-2.1619 2.535-0.8115-0.16-0.0407-1.184 0.1003-1.461 3.7786-7.381 9.2523-14.326 12.862-21.873l-25.335-17.753-1.5e-4 -0.0031z" fill="#fff"/>
<path d="m61.064 66.026c0.1316-0.1633 0.9527-0.0848 0.3511-0.7476-0.4105-0.4523-1.576-0.5936-2.187-0.6313l-56.228 0.1539c-2.6852 1.1936-1.3254 4.545 0.17858 6.128 10.011 6.5459 19.573 14.788 29.668 21.095 0.6266 0.3926 2.2497 1.5673 2.8732 1.5139l1.8987-1.5799c7.1656-9.0052 16.28-17.021 23.449-25.929l-0.0033-0.0031z" fill="#fff"/>
<path d="m73.459 108.58-11.264-42.033-19.724 22.401 30.987 19.631z" fill="#fff"/>
<path d="m89.119 109.52c-1.7233 4.259 2.303 6.986 2.1902 10.978-0.7645 0.063-1.3755 0.022-2.1055-0.245-2.5003-0.917-6.7646-4.134-9.4717-5.566s-9.2899-5.029-12.06-4.862c-0.47 0.028-0.9149-0.226-0.7833 0.474 0.8804 1.027 1.9551 1.812 3.0298 2.613 1.7734 1.32 12.552 7.812 12.878 8.742 0.3634 1.039 0.0439 1.228-0.8992 0.901-3.4466-1.203-8.8043-6.483-12.596-8.082-0.3917-0.166-0.7175-0.333-1.1624-0.245-1.0685 1.103 3.8256 5.645 4.6904 6.433 2.2433 2.045 4.8314 3.757 7.2063 5.644l-0.4981 0.767c-0.3917 0.119-0.6987-0.019-1.0559-0.151-2.5599-0.933-6.0032-5.242-8.4597-6.734 0.2977 3.113 2.7635 5.233 5.0351 7.029 0.8992 0.713 5.2575 2.651 3.0016 3.59l-5.3766-3.408c1.0089 3.666 5.3014 5.78 8.397 7.586 4.1515 2.425 8.5787 4.394 12.871 6.552l7.0716-11.443c-2.1086-3.561-3.0266-7.755-4.9629-11.373-1.0246-1.919-4.6059-7.205-6.0565-8.675-0.2789-0.283-0.2789-0.679-0.8805-0.525h-0.0032z" fill="#fff"/>
<path d="m200.58 154.38 1.262-14.913c0.054-3.552-2.741-3.725-5.533-4.177-4.74-0.77-11.774-1.543-16.537-1.628-0.348-6e-3 -1.435-0.103-1.429 0.176 1.517 6.675 2.419 13.72 1.57 20.542h20.667z" fill="#fff"/>
<path d="m45.282 117.99 14.247 15.674 8.2997-15.203-22.546-0.471z" fill="#fff"/>
<path d="m104.14 81.285-2.31 0.9077-0.228 0.4994c0.341 7.4347 3.446 11.292 11.16 10.836 8.623-0.5088 15.5-6.5709 20.175-13.346l-3.741-1.4103c-2.773 6.6809-14.592 14.04-21.616 10.827-3.115-1.4229-3.747-5.258-3.44-8.3142z" fill="#fff"/>
<path d="m16.322 92.416c-1.1687-0.0251-5.3891 1.7056-6.6298 2.3024-2.6758 1.2846-6.9714 3.8445-4.1766 7.1202l11.602-6.8941c1.0997-0.9957 0.8898-2.4939-0.7959-2.5285z" fill="#fff"/>
<path d="m16.679 99.996c1.3066-1.5297 0.987-2.786-1.2251-2.3306-1.0621 0.2199-6.987 3.766-7.9082 4.63-2.0397 1.913-1.883 3.593 0.58905 5l8.5442-7.2994z" fill="#fff"/>
<path d="m13.768 86.646c-1.0904-0.3455-5.8245 2.5913-6.8334 3.43-1.1844 0.9831-4.5588 4.6643-2.6789 6.1217 0.51071 0.3958 0.64232-0.0754 0.9525-0.3235 2.8418-2.2772 5.4549-4.8151 8.4565-6.8976 0.5515-0.5088 1.0496-2.0322 0.1065-2.3306h-0.0032z" fill="#fff"/>
<path d="m18.358 117.36 4.3553 3.003 1.7954 1.665 5.7463-4.203c-3.9353-0.578-7.9176-0.493-11.894-0.465h-0.0033z" fill="#fff"/>
<path d="m9.3662 111.62c0.34778 0.411 2.7449 1.253 3.0394 1.027-0.2413-0.701-1.0308-1.442-0.8178-2.202 0.3384-1.2 5.2638-3.839 4.5714-6.263-0.94-0.93-9.5751 4.165-6.796 7.437l0.00296 1e-3z" fill="#fff"/>
<path d="m92.402 3.1748c-4.1359 0.5591-10.158 4.5261-10.487 9.0963 1.5509-1.7778 3.1238-3.4928 5.223-4.6455l9.8007-4.4539c-1.435 0.13506-3.1489-0.18846-4.54 0l3e-3 0.00316z" fill="#fff"/>
<path d="m97.967 139.05c-1.1154-0.283-2.0178 2.588-2.8731 3.25l4.5118 3.6 2.6323-3.917-4.271-2.933z" fill="#fff"/>
<path d="m94.596 143.4c-0.4136 0.779-2.1118 2.425-1.9175 3.138 0.3603 1.341 3.1927 2.783 4.3833 3.417l1.7108-2.908-4.1766-3.647z" fill="#fff"/>
<path d="m98.55 138.02 4.1862 2.865 2.287-3.295-4.941-2.975-1.5322 3.405z" fill="#fff"/>
<path d="m101.01 133.98 4.847 2.522 1.41-2.051-4.587-2.934c-0.746-0.128-1.843 2.224-1.667 2.463h-3e-3z" fill="#fff"/>
<path d="m30.566 124.88-0.0094-0.45-2.3372-2.99-2.6037 2.029 2.2841 3.239 2.6662-1.828z" fill="#fff"/>
<path d="m31.932 118.64-2.5409 2.011 2.2683 2.908 2.6602-2.277-2.3876-2.642z" fill="#fff"/>
<path d="m22.425 124.89c-0.1284 0.474 0.1253 0.518 0.3071 0.785 0.2099 0.305 2.3436 2.752 2.5097 2.84 0.6579 0.336 1.0214-0.468 1.4193-0.801l-2.0522-3.766-2.1839 0.942z" fill="#fff"/>
<path d="m33.072 117.67 2.0334 2.818c0.8428-0.889 1.8987-1.634 2.3499-2.818h-4.3833z" fill="#fff"/>
<path d="m103.24 130.5c0.116 0.201 3.478 2.242 3.945 2.478 0.32 0.16 0.906 0.606 1.028-0.097 0.106-0.625-3.885-3.088-4.54-3.597-0.398 0.255-0.668 0.804-0.433 1.213v3e-3z" fill="#fff"/>
<path d="m128.57 51.169c1.858 0.4241 1.802-1.7872 3.274-2.1924 0.448 0.11 1.721 3.4865 2.52 2.1987 0.604-1.1276-1.545-2.6102-1.36-3.565l2.76-2.8677-0.617-0.6439-3.021 2.3463c-0.633 0.1099-1.989-2.362-2.303-1.0711-0.266 1.0868 0.956 1.6804 0.803 2.3746-0.207 0.9266-2.316 2.0793-2.053 3.4205h-3e-3z" fill="#000"/>
<path d="m110.8 39.962c-1.398 1.492-0.608 6.1909 1.805 5.437 2.412-0.7538 1.547-7.5477-1.805-5.437z" fill="#000"/>
<path d="m95.238 46.162c-2.2152-0.3141-2.0429-6.4233 0.8553-5.6161 1.8831 0.5246 2.0742 6.0307-0.8553 5.6161z" fill="#000"/>
<path d="m110.72 56.506c-2.102 0.2104-3.944 1.5924-6.138 1.8468-1.24 0.1445-4.161-0.3831-4.6117-0.2512-0.9149 0.267-0.6987 1.159 0.2787 1.5233 2.381 0.8858 7.849-0.1036 9.832-1.7244 0.52-0.424 0.752-0.6658 0.639-1.3945z" fill="#000"/>
<path d="m103.82 50.556c-0.623-0.1068-1.654-0.5308-1.827-1.181-0.266-0.9988 0.937-5.2517 0.922-6.8285-4e-3 -0.4711 0.068-1.9128-0.803-1.7307-0.466 0.0974-0.651 1.8846-0.742 2.3966-0.292 1.6522-1.169 6.4673-0.191 7.6295 0.736 0.8763 2.976 1.6081 2.641-0.289v0.0031z" fill="#000"/>
</svg>
