<?xml version="1.0" encoding="UTF-8"?>
<svg viewBox="0 0 366 156" xmlns="http://www.w3.org/2000/svg">
<path d="m137.76 57.112v4.5957c0 0.6963 0.656 2.4454 1.459 2.7156 13.38 1.2255 24.706 6.2975 33.233 16.792 8.876 10.927 15.319 24.19 22.909 36.02 2.122-1.14 4.122-2.49 6.064-3.911 2.693-1.972 7.132-6.576 10.355-6.896 0.861-0.087 1.756 0.342 2.15 0.284 0.236-0.036 1.584-2.95 3.359-1.137l5.148-7.6646c0.1-0.546-0.083-0.3399-0.347-0.4735-0.837-0.4262-1.984-0.5989-2.892-1.0027-1.656-0.7353-3.545-1.7352-5.062-2.7184-0.75-0.4875-3.531-2.3536-3.59-3.0889-0.197-2.4705 3.529 1.2589 3.84 1.0222l1.4-2.919c-13.497-9.7038-13.399-30.546 0.069-40.314 6.66-4.8269 15.655-6.4284 23.39-3.3173l1.225-2.8521c-0.267-0.8774-3.875-0.7715-3.881-1.9775l0.472-0.6601c1.503-0.4791 7.343 2.3424 8.885 3.2532 6.129 3.6236 11.188 9.8654 13.338 16.7 6.501 20.678-10.021 41.163-31.391 39.086l-1.817 3.9825c3.006 2.184 5.571 0.012 8.438-0.955 2.328-0.785 5.003-1.479 7.481-1.092 0.342 0.053 3.412 1.429 3.643 1.638 1.9 1.727 2.022 3.189 0.108 4.871-1.6 1.407-0.786 0.711-1.798 2.373-0.869 1.426-9.404 4.986-11.362 5.59-1.856 0.571-3.784 0.869-5.704 1.106 0.886 1.549-1.773 2.674-1.884 3.234-0.086 0.429 0.434 1.301 0.445 1.916 0.083 4.922-7.318 11.381-10.771 14.489-5.582 5.028-15.286 13.445-22.912 14.057-8.132 0.652-15.497-7.158-20.675-12.528 0.678 4.125 1.575 8.339 0 12.4-0.517 1.334-1.923 2.423-1.131 3.635 18.439 0.142 36.95 0.223 55.414 0.136 0.792-2e-3 1.475-0.3 2.197-0.303 11.649-0.059 23.309 0.033 34.95 0.053 0.6 0.178 0.653 1.189 0.195 1.504l-261.91 1.245-0.34172-1.12 1.1141-0.576 87.988-0.248c1.1418-1.889 0.0416-2.098-0.6168-3.265-1.2363-2.189-2.1948-4.81-1.4335-7.333-1.5614 0.693-2.806 1.994-4.3368 2.749-9.6875 4.785-21.211-3.476-28.554-9.442-4.0895-3.323-16.686-15.236-18.003-19.817-0.1944-0.677-0.0861-1.839-0.2472-2.125-0.0917-0.165-1.5641-0.727-1.9086-1.29-0.2834-0.46-0.2251-1.212-0.2695-1.259-0.0889-0.092-1.9948 0.019-2.5587-0.081-1.8559-0.326-5.3731-1.521-7.29-2.156-1.917-0.635-8.454-2.699-8.7374-4.902-0.0834-0.649 0.3278-1.342 0.1472-1.779-0.3861-0.939-2.5448-1.112-2.0364-3.4263 0.3473-1.5848 1.5808-1.245 2.4337-1.7436 0.4418-0.259 0.5779-0.9052 1.1946-1.3091 0.9224-0.6044 2.4532-0.7993 3.5367-0.7715l-0.6029-3.7155-4.8118-2.5903c-1.8864 0.3788-5.3425 3.2615-6.9483 1.8522-0.6362-1.2701-5.3174-5.6151-5.4175-6.5593-0.13336-1.259 3.2783-4.4342 4.0923-5.5566l-1.578-4.9634c-1.7475-1.0584-5.3425-1.0751-5.5758-3.3785-0.14169-1.3843 0.15836-4.8937 0.29727-6.4173 0.063898-0.6991 0.26948-1.4121 0.40284-2.1028l6.4982-1.142 1.7058-3.9774c-0.28338-1.2951-2.9588-5.2391-2.6698-6.3002 0.14446-0.5265 1.1196-1.3871 1.553-1.8077 0.61954-0.5988 3.6755-3.3869 4.1756-3.6208 1.528-0.7158 4.2478 2.8493 5.6341 3.4426l5.4092-1.9636 1.703-6.7822 8.9097 0.2841 1.5141 6.2808 4.8618 2.1112c1.1974-0.4122 4.7757-3.0081 5.8175-2.5401 1.4558 0.6545 4.3257 5.0302 5.8009 6.2 0.4167 1.504-3.1283 4.3868-3.2338 5.551-0.0167 0.1811 1.0724 3.2393 1.2029 3.4287 0.7974 1.1475 6.9511 1.4288 7.49 2.5123 0.539 1.0835-0.1305 2.6683-0.1528 3.7517-0.0333 1.4122 0.3473 5.3923-0.4139 6.2697-0.9613 1.1085-6.4399 0.7993-7.0038 1.4706l-2.0114 5.3477c0.4834 1.4094 3.6394 5.3783 3.2949 6.6373-0.1084 0.3983-5.3063 5.3254-5.9287 5.7711-0.2778 0.1977-0.5195 0.44-0.8751 0.4985-0.9585 0.0892-4.5979-3.0721-5.548-3.813l-1.4836 0.947c1.1807 1.1977 5.0063 7.6316 6.1092 8.0884 0.4334 0.1783 1.2336-0.2646 2.0142-0.0975 0.6307 0.1337 1.278 0.9778 1.7725 1.0168 0.3306 0.025 0.7418-0.4932 1.3391-0.5377 1.4641-0.1114 4.5146 2.2007 5.9676 2.9577 5.134 2.674 10.526 4.905 15.138 8.481 6.3232-10.974 12.51-22.432 20.686-32.153 7.9595-9.4644 18.661-12.999 30.78-13.823 0.572-2.8326 0.653-5.7182 0.58-8.6037-3.294 1.6015-7.137-0.454-8.073-3.8827-5.979 1.5208-6.962-5.7571-6.634-10.124-4.965-2.8326-5.818-8.8377-1.717-12.912-2.845-5.9856-3.115-14.305 5.042-15.419-0.911-1.6963-2.833-1.5097-4.414-1.972l0.094-1.1086c1.245-0.738 2.556 0.0307 3.767 0.2953-0.527-0.8662-1.9-4.4648-0.136-4.4676 1.15 0 0.953 3.7211 2.076 4.1918 2.875-11.993 17.488-14.157 26.512-7.2528 3.984-1.699 7.54-2.3229 11.393 0.00557 4.445 2.685 6.718 7.6177 3.815 12.406 4.278 3.398 6.114 8.6315 2.15 13.088 6.276 4.0192 4.381 12.283-2.375 14.333-0.089 2.983-0.378 7.0217-3.043 8.9268-1.753 1.2561-3.203 0.3314-3.753 0.6796-0.247 0.1588-1.278 2.2477-2.07 2.9468-1.736 1.5291-4.245 2.2366-6.253 0.8272l2e-3 -0.0083zm11.624-27.259c-3.947-0.5153-6.734-3.022-9.818-5.2475-2.536 2.0221-5.734 1.2924-8.59 0.4596-4.353-1.2729-8.301-3.813-11.535-6.9465-0.575 3.2254-1.522 7.2027-4.634 8.8628-2.025 1.0806-3.111 0.2506-3.417 3.2559-0.972 9.5869 4.006 21.285 13.88 23.948 15.913 4.2893 25.056-10.024 24.114-24.332zm-39.703 0.8383c-2.028-0.9776-4.328 0.5432-5.164 2.4009-2.087 4.6319 2.314 8.963 6.867 8.977l-0.905-3.2644-4.798-3.4008c-0.467-0.3342-0.625-1.206-0.136-1.5625 0.972-0.7075 4.297 2.5931 4.45 2.3814l-0.314-5.5316zm39.74 11.935c4.6-0.0557 9.77-4.0442 7.465-9.0187-0.892-1.919-3.676-4.0247-5.665-2.4009l-0.411 5.0163c0.364 0.4206 3.172-2.7491 4.459-1.8272 0.28 0.2006 0.347 0.7938 0.277 1.103-0.036 0.1615-2.339 1.22-2.883 1.6099-2.128 1.5124-2.912 2.8772-3.24 5.5204l-2e-3 -0.0028zm-116.91-0.2479-6.6093-0.2785-1.6697 6.5426c-1.2807 0.557-2.667 0.8161-3.9839 1.2951-0.8779 0.3203-2.4781 1.5486-3.2477 1.1977l-4.3117-3.7657-4.5368 4.3534 2.7198 6.0914c-1.2974 1.3258-1.6002 4.8992-3.3004 5.3087-0.97237 0.2339-5.273 0.3565-5.5369 1.1308l-0.26671 7.0217 5.0896 1.997c0.52508 1.1002 0.60287 2.3285 0.96404 3.4899 0.23336 0.7548 1.089 2.1892 1.1252 2.802 0.06668 1.1782-3.2144 3.6348-3.7561 4.8603-0.13613 0.3092-0.23059 0.5125-0.00556 0.8189l4.509 4.9772 6.0314-2.1864 5.9259 2.8493c0.6362 1.0501 0.7307 6.5566 1.628 6.8629l6.7677 0.195 1.7253-6.7793c1.6446-0.4875 3.2615-1.0278 4.8479-1.6823 0.9196-0.3788 1.4474-1.2813 2.5809-0.7465 0.8029 0.3788 3.7506 3.3395 4.3507 3.4454l5.5702-4.838-3.5172-6.4145c1.1974-2.0444 2.1198-4.2169 2.6171-6.5509l7.1038-1.2673 0.2473-7.9046-7.2094-1.8188c-0.075-1.4149-1.7308-3.7518-1.892-4.8046-0.2167-1.4149 3.7895-4.2364 3.1533-5.6346-0.1278-0.2785-3.9339-4.3534-4.2312-4.4286l-5.4897 2.4929-5.8175-2.27-1.5725-6.3616h-0.0028zm182.98 50.38c2.056 0.8022 5.57 3.2031 7.715 3.2978 0.967 0.0418 1.523-1.2283 3.195-0.727 0.967 0.2897 0.62 1.5737 2.867 1.8606 6.346 0.8077 15.027-2.6906 19.82-6.7877 15.869-13.57 12.06-39.002-6.776-47.472l-1.259 3.022c7.471 3.1808 13.041 10.581 14.339 18.625 3.078 19.093-15.211 34.314-33.378 27.638-1.786-0.6573-3.214-1.6266-4.964-2.2561l-1.553 2.802-6e-3 -0.0028zm13.88-47.62c-0.9 0.1476-1.973 0.1671-2.842 0.351-0.267 0.0557-0.834 0.1002-0.764 0.479l1.764 0.8133 1.842-1.6433zm3.609 0.2758c-3.498 0.6824-6.068 4.0553-7.218 7.2361l6.107 1.6767 1.111-8.9128zm5.553 9.7484c-0.519-1.5375 1.212-2.6794 0.934-3.8325-0.561-2.3341-2.82-4.5372-4.681-5.9132-0.428 0.2702-0.364 0.5515-0.423 0.9637-0.141 1.0278-1.061 7.8768-0.794 8.1915l4.964 0.5877v0.0028zm-15.882-8.2973-2.44 1.05c0.384 0.1031 1.387 0.3816 1.592 0.6351 0.573 0.7046-0.144 2.7435 1.184 2.71l0.558-3.2225-0.892-1.1698-2e-3 -0.0028zm24.209 4.682c-2.606-1.6656-4.923-4.0971-8.049-4.7377l1.948 3.8966c0.517 0.0445 0.78-0.4707 1.261-0.5571 2.212-0.4011 2.97 2.6794 3.587 2.7324 0.311 0.025 1.531-0.9248 1.253-1.3342zm-21.929-4.462-0.141 3.0582 1.475-2.0861-1.334-0.9721zm-5.834 4.4509c0.331-0.4624-1.972-1.8968-2.214-1.8104-1.103 0.5208-7.243 6.8183-6.39 7.665 0.839-0.0696 1.531 0.1978 2.084 0.8328 0.992-1.4149 1.897-2.6488 3.45-3.4955 0.514-0.2813 1.637-0.3872 1.834-0.6657 0.408-0.571-0.106-2.4622 1.236-2.5234v-0.0028zm25.073 2.1474c-0.589-0.5403-1.169-3.2309-2.33-1.7436-0.642 0.8245 0.3 2.2088 0.327 3.1947 0.762 0.2563 6.649-0.6573 6.629-1.2255-0.908-1.4511-1.689 0.2618-2.981 0.3677-0.478 0.039-1.311-0.2841-1.65-0.5933h5e-3zm-20.933-0.4401-1.081-0.3119c-0.097 1.7742-1.295 1.3341-2.498 0.8356-0.116 2.4621-1.95 1.5235-3.322 2.3786-2.306 1.4316-2.273 3.2086-3.14 5.2057-0.969 2.2365-2.906 0.5654-3.67-0.8885-3.158 1.66 0.187 4.7265 1.89 6.0802 2.305-2.2338 3.67 0.4874 5.456 1.0194 0.875 0.2618 2.122 0.2256 3.062 0.4094 0.397-3.9606 1.3-7.8349 2.419-11.64 0.203-0.6907 1.231-2.5318 0.884-3.0916v0.0027zm6.687 16.121 1.65-13.188-6.484-2.1028c-1.053 0.2311-3.723 12.233-3.509 14.013l8.343 1.2813v-0.0028zm24.153-1.3899c-0.125-2.9078-0.761-5.8713-1.892-8.5452-0.341-0.8105-1.811-3.9551-2.633-3.9384-0.678 0.014-3.001 0.8189-4.017 0.9888-1.017 0.1699-2.104-0.0807-3.095 0.3788l0.255 4.4342c1.328-0.2117 3.523 0.0919 3.604 1.8215 0.08 1.7297-0.267 0.8133 0.422 2.6349 0.314 0.83 1.747 5.2419 2.081 5.4508 1.097 0.1114 2.114-0.6239 2.778-1.415-0.903-0.4623-3.081-1.9886-3.048-3.0693 0.067-2.0583 2.339 0.4261 3.131 0.7576 0.392 0.1643 2.234 0.6851 2.412 0.5013h2e-3zm-117.99-11.698-7.952 4.4174-5.1 1.8439-1.001 4.1834c3.24 7.6902 13.255 6.8657 16.242-0.6127l0.014-0.3342c-1.048-0.1031-2.201-2.7129-2.201-3.5095v-5.9883h-2e-3zm101.33 0.2813-4.125-0.2423-0.87 5.8101 2.775-0.8384c-0.458-1.1587-0.441-3.4203 0.72-4.1501 0.542-0.3398 1.378-0.0724 1.5-0.5793zm3.328 0.2758c-0.758-0.1031-0.977 0.8884-1.578 1.0584-1.353 0.3815-2.786-0.4568-2.858 2.0026 1.15 0.0529 1.336-1 2.478-1.2701 0.744-0.1755 1.489-0.1281 2.242-0.1226l-0.281-1.6683h-3e-3zm0.242 3.3868c-1.2-0.1894-1.564-0.5041-2.736 0.2396-0.098 0.8885 0.964 0.5821 1.511 1.401 0.378 0.5682 0.589 1.7853 0.714 2.4928h0.828l-0.314-4.1334h-3e-3zm-5e-3 5.8463c-1.856-0.3788-1.862-2.0249-2.565-3.4147-2.344-0.5933-5.378-0.1644-6.195 2.4761-1.778 5.7348 4.684 5.4507 8.526 5.9103l0.234-4.9717zm3.922-3.0916c-0.764-0.3008-1.43-0.39-2.172 0.025l0.083 1.3704 1.548 0.1253 0.541-1.5207zm-1.175 3.4008c-0.147-0.1588-0.919-0.4819-1.036-0.351l-0.553 5.2809 3.328 0.5626c-1.03-1.1614-0.919-4.6096-1.739-5.4953v0.0028zm-126.52 0.7631c3.239 13.461 23.275 13.89 26.031-0.1532-0.083-0.4707-2.675-0.6712-3.278-0.5654-3.459 9.3307-16.158 10.13-19.742 0.4847l-3.011 0.2339zm76.308 51.207c0.292-0.501-2.228-4.629-2.692-5.437-6.792-11.86-17.144-30.54-27.998-38.478-5.279-3.8576-11.341-6.4507-17.836-7.2696-3.081 16.024-25.785 15.623-29.457 0.2563-5.535 0.9525-11.06 2.4315-15.9 5.3477-6.5676 3.9551-12.088 11.796-16.355 18.126-4.5617 6.7682-8.5707 14.074-12.399 21.284l-0.0111 0.335c1.7475 1.1 8.8791 6.478 9.2875 8.077 0.2722 1.07-0.8696 1.075-1.6892 0.602-0.9835-0.571-3.9478-3.914-5.2646-5.022-7.5678-6.362-16.08-10.192-24.723-14.779l-10.404 14.353c0.0028 0.894 1.2863 2.935 1.8448 3.735 5.698 8.163 21.448 22.056 30.785 25.379 6.5343 2.326 12.46 0.872 17.222-4.183 1.0085-1.073 2.7699-7.618 3.3311-9.473 3.5255-11.676 6.3954-23.644 8.2651-35.716l0.6142-0.7103 0.7 0.3538c0.283 0.2144 0.292 0.5013 0.292 0.8244 0 1.0473-0.47 3.2059-0.65 4.3897-2.2175 14.497-7.3266 27.538-10.883 41.445-0.8723 3.414-1.1446 7.083 2.2226 9.188 10.068-3.013 20.172-6.79 30.799-7.255 15.824-0.694 27.337 4.161 42.064 6.846 2.19 0.398 3.715 1.245 4.734-1.117 1.02-2.362 0.859-4.816 0.823-7.242-2.956-15.196-5.854-30.401-7.976-45.748 0.077-0.7575 0.883-1.2394 1.461-0.635 0.539 0.5654 2.064 13.378 2.403 15.417 1.22 7.33 2.926 14.561 3.962 21.928 6.548 7.81 14.849 18.241 26.245 13.765 6.499-2.551 20.259-14.216 24.707-19.776 1.478-1.846 3.553-5.169 2.07-7.355-2.495-3.674-7.015-7.203-9.56-11.019-0.809-0.766-1.131-0.76-2.167-0.51-2.687 0.649-8.532 6.234-11.352 8.117-3.728 2.492-8.384 5.01-12.393 7.063-1.248 0.638-3.004 1.596-2.131-0.746l8.015-4.357-6e-3 -5e-3zm13.919-50.65v4.3171c0 0.8718 1.072 4.2253 1.453 5.2252 1.431 3.7573 4.29 7.5899 7.568 9.8626 1.353-1.0361 2.931-1.7157 4.584-2.1418l-1.114-4.7294c-2.037 0.7548-2.52 4.877-4.576 4.7628-2.209-0.1226-1.756-4.8519-2.153-6.5036-0.475-1.9803-1.484-2.1892-2.545-3.5763-1.661-2.1697-2.456-4.4035-0.167-6.5231 6e-3 -0.5069-2.505-0.4958-3.047-0.6963l-3e-3 0.0028zm12.157 4.5121c-0.828-0.3843-1.555-0.8996-2.178-1.5737-0.422-0.4567-0.558-1.2032-0.822-1.4009-0.508-0.3844-3.984-0.8913-4.598-0.4401-0.139 0.103-1.325 1.7575-1.386 1.9552-0.742 2.3035 2.847 4.1111 3.625 6.1443 0.731 1.9107 0.606 4.6403 0.978 6.6819 0.65 0.1365 0.445-0.0863 0.622-0.3593 1.181-1.8439 1.954-3.6181 3.762-5.1305v-5.8741l-3e-3 -0.0028zm34.442-2.8047-1.067-0.3148-0.264 1.5486-2.512 2.0695 3.609 0.2841 0.236-3.5874h-2e-3zm-24.396 1.6405-8.32-1.1197c-0.776 2.4037 1.072 1.9413 2.097 3.3228 1.525 2.0528-1.858 3.5095-2.097 5.4759l1.111 5.966 5.52-0.3119 1.689-13.333zm0.02 13.631c2.289 0.1699 4.417 1.0639 6.523 1.8967 1.759-0.2701 2.003-9.52 1.67-11.094-0.62-2.9329-3.898-4.0247-6.529-4.1528l-1.664 13.347v0.0028zm10.524-11.954-2.209-0.2869c0.819 1.2618 1.492 2.5959 1.392 4.1751l0.753-2.4426 0.064-1.4428v-0.0028zm6.395 1.1058-4.717-0.8412-2.223 10.027c0.553 0.1114 0.664-0.2618 0.886-0.6406 1.328-2.2505 0.998-4.3673 3.415-6.3226 0.416-0.337 3.106-1.5737 2.636-2.2254l3e-3 0.0028zm-25.537 1.9469 1.375-1.2701c-1.572-2.1753-1.486-0.3482-1.375 1.2701zm32.202-1.1114-4.737-0.7046c-0.595 2.1613-3.231 2.4984-4.428 3.9021-1.798 2.1085-1.503 6.9437-5.226 6.8713l-1.034 2.7518 3.07 2.4455c5.993-3.1752 10.832-8.5257 12.358-15.263l-3e-3 -0.0028zm-25.54 11.136-4.72 0.2813c0.958 2.0444 1.947 4.1195 3.75 5.565 0.661 0.1198 0.345-0.3036 0.4-0.7019 0.236-1.7046 0.467-3.4259 0.57-5.1444zm1.667 0.2786-0.781 5.5009c0.047 1.3787 3.22 0.1866 3.926-0.2535 0.486-0.3036 2.981-2.7853 2.95-3.1613l-6.095-2.0861zm-7.81 0.5932c-0.536-0.3426-3.47 0.8913-3.85 1.635 0.961 0.3119 5.778 3.2504 6.384 2.7852l-2.534-4.4202zm13.086 5.2586c0.655-0.4094 4.428-0.8801 4.434-1.5319l-2.079-1.465c-0.386 0.3426-2.586 2.7184-2.355 2.9969zm-206.14 7.5202c-1.8058-0.181-3.8561 0.1337-5.6925 0l2.5198 1.2312 0.2501 1.267c-0.3584 0.507-2.8727-0.757-3.6033-0.966-1.0891-0.312-6.0065-1.7606-6.6621-0.972-0.3223 0.752 1.6391 2.303 2.1392 2.445 0.6445 0.181 1.4002-0.033 2.092 0.128 1.114 0.259 4.3256 0.992 4.8979 1.783 0.1917 0.267 0.3751 0.54 0.0556 0.799-1.1641 1.332-5.9426-2.61-7.2261-0.529-0.1556 0.891 3.2421 2.306 4.0034 2.618 2.1864 0.894 10.224 3.512 12.232 3.354 1.6003-0.126 1.6531-1.571 2.5115-2.78 1.0502-1.479 2.392-3.106 3.5811-4.487 0.5556-0.646 2.4698-2.028 2.2587-2.788-1.1113-0.9945-5.9315-8.5538-6.6982-8.6429-0.4473-0.0501-0.7307 0.0557-0.9585 0.454 0.5834 3.3479 3.5338 5.4174-0.7835 7.2863-2.4225 1.0496-2.6698 0.0223-4.9229-0.2034l0.0055 0.0028zm5.6898-1.9552-1.3863-3.8938-1.1141 4.7293 2.4976-0.8355h0.0028zm207.94 4.7404h-4.025c-2.181 0-6.082 2.802-8.41 3.005-1.497 0.131-5.009-0.537-5.281-2.367-0.217-1.457 1.631-3.6014 1.636-4.9606 0-0.7716-0.442-1.2701-1.139-0.8356l-6.304 9.7572 7.538 7.913c4.681-0.725 9.154-2.318 13.396-4.387 1.103-0.538 2.725-1.089 3.145-2.276-1.528-0.76-5.556 1.376-6.484 1.086-0.567-0.175-0.586-0.952-0.334-1.384 1.612-1.507 9.052-0.919 9.574-2.668 0.111-0.432-0.164-0.891-0.539-1.072-1.728-0.844-6.757 1.763-8.768 2.061-1.145 0.17-1.384-0.429-0.67-1.231 0.584-0.658 4.79-1.747 5.907-2.156 0.294-0.109 0.822-0.095 0.758-0.488v3e-3zm-221.03-4.4145c-0.3722-0.2312-1.8669 0.025-2.3475 0.2061-0.3862 0.1448-0.4723-0.0892-0.3862 0.5876l3.0532 0.5571-0.3195-1.3481v-0.0027zm23.281 3.0585c-0.8724 0.228-6.4566 6.941-7.1983 8.116-1.1141 1.763-2.7171 4.03 0.3445 4.54 1.2668-1.501 8.6374-10.478 8.5318-11.723-0.0361-0.412-1.1974-1.059-1.678-0.933zm171.54 5.826-0.88 1.076 0.183 0.671 8.699 9.651 1.225-1.284c0.055-0.282-0.139-0.521-0.272-0.752-0.798-1.393-3.957-4.582-5.232-5.899-0.5-0.519-3.367-3.535-3.723-3.46v-3e-3z"/>
<path d="m80.482 39.484c-1.5308 0.5877-2.9477 3.8687-4.5507 3.2086s-2.1198-2.5039-4.0534-0.9191c-0.6362 0.5208-0.6973 2.7602-1.0918 3.5707-0.3945 0.4707-5.1619 0.5125-5.7703 0.2089-0.7446-0.3732-0.8974-2.8716-1.1668-3.7016l-2.0698-1.1197c-1.3168 0.1894-2.5254 1.8605-3.8533 1.0723-0.464-0.2757-3.0338-3.0916-3.1311-3.5679-0.2111-1.0139 1.4808-2.2004 1.5614-3.0387 0.0111-0.131-0.6529-1.9859-0.7529-2.1363-0.3917-0.5961-3.5283-0.9972-3.6422-1.4846l0.0417-5.9159 3.5255-0.6378c1.9142-2.4761-0.1612-3.4148-0.4556-5.1695-0.2251-1.3285 2.8032-3.281 3.7533-4.1862 1.6558-0.234 4.5757 5.0162 5.2174-2.2979 0.539-0.7631 5.1925-0.6239 6.2593-0.415 1.2113 1.7965 0.3834 3.5596 3.0421 3.9272 1.2363 0.1727 2.7726-1.8466 3.6061-1.4316l4.3395 4.8798c0.3473 1.2589-2.4892 2.5207-1.1251 4.4536 0.8112 1.1476 3.6922 0.4708 4.0061 2.1057 0.125 0.6601 0.0945 4.9494-0.1306 5.4257-0.4834 1.0166-2.7781 0.8495-3.5866 1.4149-0.3 0.2089-0.9001 1.5124-0.9279 1.8355-0.0973 1.1559 2.1948 2.3953 0.9585 3.9105l-0.0028 0.0084zm2.0142-12.163-3.5783-1.0055-1.1252-3.0526 1.5974-2.5012-2.9893-3.359-2.8671 1.4901c-2.6087-1.1447-3.745-1.1364-4.3395-4.267l-3.4366-0.1393-1.0835 3.5679-2.8477 1.1587-2.7365-1.621c-3.5477 2.6432-1.403 2.4455-0.8473 4.7071 0.1333 0.5487-1.2113 3.735-1.5586 4.0303-0.7001 0.5988-2.7309 0.2005-3.1893 0.9776-0.903 4.2308 0.7056 2.8549 2.8448 4.1138 0.9057 0.532 1.1946 2.8605 1.9114 3.827l-1.5335 2.7463c2.4475 3.6013 2.3392 1.4455 4.6229 1.0612 0.6612-0.1115 3.3977 1.1419 3.8061 1.6349 0.6917 0.8328 0.225 2.3285 0.9696 3.2058l3.1727 0.1449c0.4584-0.1254 0.25-2.7658 1.2946-3.4844 0.3139-0.2172 2.8671-1.3063 3.1699-1.2756l2.7449 1.6377c0.1555-0.0306 2.1836-2.0054 2.2697-2.1976 0.4196-0.9303-0.7751-1.7408-1.0585-2.5847-0.3528-1.0612 1.0724-2.5625 1.2502-3.749l3.52-0.9247 0.0139-4.1389 0.0028-0.0028z"/>
<path d="m32.511 42.378 1.5725 6.3615 5.8176 2.27 5.4897-2.4928c0.2972 0.078 4.1034 4.15 4.2312 4.4286 0.6334 1.3982-3.37 4.2197-3.1533 5.6346 0.1611 1.0528 1.8142 3.3896 1.892 4.8046l7.2094 1.8187-0.2473 7.9046-7.1038 1.2673c-0.4945 2.3313-1.4197 4.5066-2.6171 6.551l3.5172 6.4144-5.5703 4.838c-0.5973-0.1058-3.5449-3.0665-4.3506-3.4453-1.1307-0.5348-1.6614 0.3676-2.5809 0.7464-1.5892 0.6546-3.2061 1.1949-4.848 1.6823l-1.7252 6.7794-6.7677-0.195c-0.8946-0.3064-0.989-5.8129-1.628-6.8629l-5.9259-2.8493-6.0314 2.1864-4.509-4.9773c-0.22503-0.3064-0.13058-0.5097 0.00556-0.8188 0.54174-1.2256 3.8256-3.6822 3.7561-4.8603-0.03612-0.6128-0.88902-2.0472-1.1252-2.802-0.36116-1.1615-0.43895-2.3898-0.96403-3.4899l-5.0896-1.9971 0.2667-7.0216c0.26393-0.7743 4.5618-0.8969 5.5369-1.1309 1.7002-0.4094 2.0031-3.9829 3.3005-5.3087l-2.7198-6.0914 4.5367-4.3533 4.3118 3.7656c0.7723 0.351 2.3698-0.8773 3.2477-1.1976 1.3169-0.4791 2.7032-0.7409 3.9839-1.2952l1.6697-6.5426 6.6093 0.2786h0.0027zm3.8173 35.526c12.149-12.032-6.8038-30.07-18.233-17.595-11.071 12.082 6.7565 28.961 18.233 17.595z" fill="#fff"/>
<path d="m149.38 29.852c0.942 14.308-8.201 28.621-24.114 24.332-9.874-2.6628-14.852-14.358-13.88-23.948 0.306-3.0081 1.392-2.1753 3.417-3.2559 3.109-1.6601 4.056-5.6374 4.634-8.8628 3.234 3.1307 7.182 5.6736 11.535 6.9465 2.853 0.8328 6.054 1.5625 8.59-0.4596 3.087 2.2255 5.873 4.7322 9.818 5.2475zm-32.132-1.117c-0.139 0.2229-0.072 0.869 0.086 1.0974 0.553 0.8105 2.259-0.4902 3.106-0.5626 0.622-0.0529 3.095 0.727 2.864-0.674-0.202-1.2367-3.578-0.8467-4.431-0.5933-0.197 0.0585-1.578 0.6573-1.622 0.7353l-3e-3 -0.0028zm25.19 1.0445 0.197-1.0779c-1.65-1.1754-4.181-1.6182-6.006-0.6684l0.472 1.1865 5.334 0.5598h3e-3zm-10.046 9.417c1.845-2.0277-0.564-3.749-1.159-5.4842-0.197-0.5793-0.425-1.7575-0.441-2.3675-0.02-0.7325 0.405-1.6182 0.261-2.1613-0.211-0.7938-1.314-0.9387-1.623-0.2702-0.672 1.4539-0.078 4.5929 0.545 6.0607 0.869 2.0528 3.159 3.4176-1.123 3.3145l-0.275 1.1058c0.931 0.7046 3.015 0.6796 3.815-0.2006v0.0028zm-12.205-7.3782c-2.053 0.6044-1.322 4.5149 0.986 4.359 2.665-0.6963 1.962-5.228-0.986-4.359zm20.273 0.2981c-3.879-2.1976-4.354 4.2698-1.22 4.0274 1.831-0.142 2.323-2.7184 1.22-4.0274zm-17.689 13.027c-1.297 1.855 5.351 3.5151 6.52 3.607 2.629 0.2089 6.835-0.3844 8.474-2.6405l-0.697-0.8857c-3.368 1.7937-6.782 2.5485-10.494 1.2367-0.739-0.2618-3.331-1.9943-3.803-1.3202v0.0027z" fill="#fff"/>
<path d="m215.49 92.758 1.553-2.802c1.75 0.6295 3.178 1.5987 4.965 2.2561 18.166 6.6762 36.455-8.5452 33.377-27.638-1.297-8.0439-6.865-15.444-14.338-18.625l1.258-3.022c18.836 8.47 22.648 33.9 6.776 47.472-4.792 4.0971-13.474 7.5954-19.819 6.7876-2.248-0.2868-1.901-1.5709-2.867-1.8605-1.673-0.5014-2.228 0.7715-3.195 0.7269-2.142-0.0947-5.659-2.4956-7.715-3.2977l5e-3 0.0028z" fill="#fff"/>
<path d="m28.514 99.448c2.2531 0.2256 2.4977 1.2532 4.923 0.2033 4.3146-1.8689 1.3669-3.9356 0.7835-7.2863 0.2278-0.3955 0.5112-0.5041 0.9585-0.454 0.7667 0.0892 5.5869 7.6484 6.6982 8.6432 0.2111 0.76-1.7058 2.141-2.2587 2.788-1.1863 1.381-2.5282 3.008-3.5811 4.487-0.8584 1.206-0.9112 2.654-2.5115 2.779-2.0114 0.156-10.046-2.459-12.232-3.353-0.7613-0.312-4.1562-1.727-4.0034-2.618 1.2835-2.081 6.062 1.86 7.2261 0.529 0.3195-0.259 0.1361-0.532-0.0556-0.799-0.5723-0.791-3.7839-1.524-4.8979-1.783-0.6918-0.162-1.4475 0.053-2.092-0.128-0.5001-0.142-2.4643-1.694-2.1392-2.446 0.6556-0.7878 5.573 0.663 6.6621 0.972 0.7306 0.209 3.2449 1.471 3.6033 0.967l-0.2501-1.267-2.5198-1.2314c1.8336 0.1337 3.8867-0.1811 5.6925 0l-0.0056-0.0028zm0.8919 4.2392c-1.0474 0.245-1.5225 1.178-0.5807 1.866 0.9113-0.359 3.1199 0.081 3.3978-0.997 0.3306-1.284-2.1031-1.036-2.8171-0.869z" fill="#fff"/>
<path d="m242.14 102.23c0.064 0.393-0.466 0.379-0.758 0.487-1.117 0.41-5.32 1.499-5.906 2.156-0.714 0.805-0.473 1.401 0.669 1.231 2.011-0.298 7.04-2.905 8.768-2.061 0.372 0.181 0.65 0.641 0.539 1.073-0.522 1.749-7.962 1.161-9.574 2.668-0.252 0.429-0.233 1.206 0.334 1.384 0.925 0.29 4.956-1.846 6.484-1.086-0.419 1.186-2.042 1.738-3.145 2.275-4.242 2.07-8.715 3.663-13.396 4.387l-7.538-7.913 6.304-9.7565c0.698-0.4345 1.142 0.0669 1.139 0.8356-5e-3 1.3592-1.85 3.5069-1.636 4.9609 0.272 1.83 3.781 2.498 5.281 2.367 2.328-0.203 6.229-3.005 8.41-3.005h4.025v-3e-3zm-14.499 5.64c-0.895 0.112-2.834 0.655-2.731 1.735 0.145 1.521 1.892 6e-3 2.673-0.117 1.144-0.181 4.034 0.959 4.284 0.115 0.439-1.482-3.242-1.855-4.226-1.733z" fill="#fff"/>
<path d="m229.92 69.364-8.343-1.2813c-0.214-1.7798 2.456-13.782 3.509-14.013l6.484 2.1029-1.65 13.188v0.0029z" fill="#fff"/>
<path d="m117.21 67.139 3.011-0.2339c3.584 9.6454 16.283 8.846 19.742-0.4847 0.603-0.1086 3.195 0.0947 3.278 0.5654-2.756 14.041-22.792 13.614-26.031 0.1532z" fill="#fff"/>
<path d="m223.24 53.243c0.347 0.5599-0.681 2.4009-0.884 3.0916-1.119 3.8047-2.022 7.679-2.419 11.64-0.939-0.1866-2.187-0.1504-3.062-0.4095-1.784-0.5319-3.15-3.2504-5.456-1.0194-1.703-1.3536-5.046-4.4202-1.89-6.0802 0.764 1.4511 2.701 3.1223 3.67 0.8885 0.867-1.997 0.834-3.774 3.14-5.2057 1.375-0.855 3.209 0.0836 3.323-2.3786 1.202 0.4986 2.4 0.9386 2.497-0.8356l1.081 0.312v-0.0028z" fill="#fff"/>
<path d="m253.25 74.662c-1.525 6.7376-6.362 12.088-12.358 15.263l-3.069-2.4454 1.033-2.7518c3.723 0.0752 3.431-4.7629 5.226-6.8713 1.197-1.4038 3.836-1.7436 4.428-3.9022l4.737 0.7047 3e-3 0.0028z" fill="#fff"/>
<path d="m229.66 84.675 1.664-13.347c2.631 0.1282 5.909 1.2172 6.529 4.1529 0.333 1.5709 0.086 10.824-1.67 11.094-2.106-0.8328-4.234-1.7269-6.523-1.8968v-0.0027z" fill="#fff"/>
<path d="m254.08 67.974c-0.177 0.1838-2.019-0.337-2.411-0.5014-0.792-0.3314-3.064-2.8159-3.131-0.7576-0.036 1.0807 2.145 2.6042 3.048 3.0694-0.664 0.7938-1.681 1.5291-2.779 1.4149-0.333-0.2061-1.766-4.6208-2.08-5.4508-0.689-1.8215-0.345-0.9553-0.423-2.6348-0.077-1.6795-2.275-2.0333-3.603-1.8216l-0.256-4.4341c0.992-0.4624 2.065-0.2089 3.095-0.3788 1.031-0.1699 3.34-0.9749 4.018-0.9888 0.822-0.0167 2.289 3.1279 2.633 3.9384 1.131 2.6738 1.767 5.6346 1.892 8.5452h-3e-3z" fill="#fff"/>
<path d="m229.64 71.044-1.689 13.333-5.52 0.3119-1.111-5.966c0.239-1.9664 3.622-3.4231 2.097-5.4759-1.025-1.3815-2.873-0.9191-2.097-3.3228l8.32 1.1197z" fill="#fff"/>
<path d="m219.6 72.208v5.8741c-1.808 1.5124-2.581 3.2866-3.761 5.1305-0.175 0.2729 0.028 0.4957-0.623 0.3593-0.369-2.0416-0.244-4.7684-0.977-6.6819-0.778-2.0332-4.368-3.8437-3.626-6.1443 0.064-0.1977 1.247-1.8522 1.386-1.9552 0.611-0.4513 4.09 0.0557 4.598 0.44 0.264 0.2006 0.403 0.947 0.823 1.401 0.622 0.6741 1.35 1.1893 2.178 1.5737l2e-3 0.0028z" fill="#fff"/>
<path d="m240.99 66.066-0.234 4.9717c-3.842-0.4596-10.304-0.1755-8.526-5.9103 0.82-2.6405 3.851-3.0694 6.195-2.4761 0.703 1.3898 0.709 3.0359 2.565 3.4147z" fill="#fff"/>
<path d="m207.44 67.696c0.545 0.2005 3.053 0.1893 3.048 0.6963-2.29 2.1168-1.495 4.3506 0.166 6.5231 1.062 1.387 2.067 1.5959 2.545 3.5762 0.398 1.6489-0.055 6.3783 2.153 6.5036 2.056 0.1142 2.542-4.008 4.576-4.7628l1.114 4.7294c-1.65 0.4234-3.231 1.1058-4.584 2.1419-3.278-2.2728-6.137-6.1053-7.568-9.8626-0.38-0.9999-1.453-4.3534-1.453-5.2252v-4.3172l3e-3 -0.0027z" fill="#fff"/>
<path d="m149.42 42.626c0.327-2.646 1.111-4.0108 3.239-5.5204 0.547-0.3872 2.848-1.4484 2.884-1.6099 0.069-0.3092 2e-3 -0.9024-0.278-1.103-1.286-0.9219-4.092 2.2477-4.459 1.8271l0.411-5.0162c1.989-1.6238 4.773 0.4818 5.665 2.4009 2.308 4.9745-2.862 8.9658-7.465 9.0187l3e-3 0.0028z" fill="#fff"/>
<path d="m109.68 30.691 0.314 5.5316c-0.153 0.2117-3.478-3.0889-4.45-2.3814-0.489 0.3565-0.331 1.2255 0.136 1.5625l4.798 3.4008 0.905 3.2644c-4.556-0.014-8.954-4.3451-6.867-8.977 0.836-1.8577 3.136-3.3785 5.164-2.4009z" fill="#fff"/>
<path d="m44.394 100.88c0.4778-0.126 1.6419 0.518 1.678 0.933 0.1056 1.245-7.265 10.222-8.5318 11.723-3.0616-0.51-1.4586-2.777-0.3445-4.54 0.7417-1.175 6.3259-7.888 7.1983-8.116z" fill="#fff"/>
<path d="m238.53 55.162-4.964-0.5877c-0.267-0.3148 0.653-7.1638 0.794-8.1915 0.059-0.4122-8e-3 -0.6935 0.423-0.9637 1.861 1.3759 4.12 3.5791 4.681 5.9131 0.278 1.1531-1.453 2.2951-0.933 3.8325l-1e-3 -0.0027z" fill="#fff"/>
<path d="m232.98 45.414-1.111 8.9128-6.107-1.6767c1.15-3.1836 3.72-6.5537 7.218-7.2361z" fill="#fff"/>
<path d="m219.1 51.536c-1.342 0.0612-0.828 1.9524-1.236 2.5234-0.2 0.2785-1.32 0.3871-1.834 0.6657-1.553 0.8467-2.458 2.0806-3.45 3.4955-0.553-0.6351-1.245-0.8997-2.084-0.8328-0.853-0.8467 5.29-7.1442 6.39-7.6651 0.245-0.0863 2.548 1.3509 2.214 1.8104v0.0029z" fill="#fff"/>
<path d="m215.94 106.7c0.356-0.075 3.223 2.944 3.723 3.46 1.275 1.32 4.434 4.509 5.232 5.899 0.13 0.231 0.325 0.471 0.272 0.752l-1.225 1.284-8.699-9.651-0.183-0.671 0.881-1.075-1e-3 2e-3z" fill="#fff"/>
<path d="m229.37 86.076 6.095 2.0861c0.028 0.376-2.464 2.8577-2.95 3.1613-0.706 0.4401-3.876 1.6322-3.926 0.2535l0.781-5.5009z" fill="#fff"/>
<path d="m246.58 73.826c0.469 0.6517-2.22 1.8883-2.637 2.2253-2.419 1.9553-2.086 4.0693-3.414 6.3226-0.222 0.376-0.333 0.7492-0.886 0.6406l2.222-10.027 4.718 0.8411-3e-3 -0.0027z" fill="#fff"/>
<path d="m227.71 85.797c-0.1 1.7185-0.334 3.4398-0.57 5.1444-0.055 0.3983 0.261 0.8217-0.4 0.7019-1.806-1.4455-2.792-3.5206-3.75-5.565l4.72-0.2813z" fill="#fff"/>
<path d="m246.86 51.547c0.278 0.4067-0.942 1.3592-1.253 1.3342-0.617-0.053-1.375-3.1335-3.587-2.7324-0.481 0.0864-0.744 0.6044-1.261 0.5571l-1.948-3.8966c3.129 0.6406 5.443 3.0721 8.049 4.7377z" fill="#fff"/>
<path d="m237.42 56.558c-0.122 0.5097-0.958 0.2395-1.5 0.5793-1.161 0.727-1.178 2.9914-0.72 4.1501l-2.775 0.8384 0.87-5.8101 4.125 0.2423z" fill="#fff"/>
<path d="m221.56 86.669 2.534 4.4202c-0.606 0.4652-5.426-2.4733-6.384-2.7852 0.38-0.7437 3.314-1.9748 3.85-1.635z" fill="#fff"/>
<path d="m243.73 66.376c0.817 0.8857 0.706 4.331 1.739 5.4953l-3.328-0.5627 0.553-5.2808c0.117-0.1309 0.889 0.1922 1.036 0.3509v-0.0027z" fill="#fff"/>
<path d="m244.17 53.683c0.339 0.3092 1.173 0.6322 1.651 0.5932 1.289-0.103 2.069-1.816 2.981-0.3676 0.016 0.5654-5.868 1.4817-6.629 1.2255-0.028-0.986-0.972-2.3703-0.328-3.1947 1.159-1.4901 1.739 1.2032 2.331 1.7436h-6e-3z" fill="#fff"/>
<path d="m254.04 69.403-0.237 3.5845-3.608-0.2813 2.514-2.0722 0.264-1.5458 1.067 0.3148z" fill="#fff"/>
<path d="m240.99 60.22 0.314 4.1361h-0.828c-0.122-0.7074-0.333-1.9246-0.714-2.4928-0.544-0.8189-1.608-0.5153-1.511-1.401 1.172-0.7437 1.533-0.4289 2.736-0.2395l3e-3 -0.0028z" fill="#fff"/>
<path d="m222.65 46.865 0.891 1.1697-0.558 3.2226c-1.328 0.0334-0.608-2.0054-1.184-2.7101-0.205-0.2534-1.208-0.5319-1.591-0.635l2.439-1.0501 3e-3 0.0029z" fill="#fff"/>
<path d="m234.65 91.928c-0.234-0.2785 1.969-2.6543 2.355-2.9969l2.079 1.465c-6e-3 0.6518-3.779 1.1225-4.434 1.5319z" fill="#fff"/>
<path d="m34.203 97.493-2.4976 0.8383 1.1141-4.7322 1.3835 3.8939z" fill="#fff"/>
<path d="m240.75 56.833 0.281 1.6683c-0.753-0.0084-1.495-0.0557-2.242 0.1225-1.142 0.2702-1.328 1.323-2.478 1.2701 0.072-2.4622 1.506-1.621 2.859-2.0026 0.6-0.1699 0.819-1.1587 1.578-1.0584l2e-3 1e-4z" fill="#fff"/>
<path d="m240.19 72.72-0.064 1.4427-0.753 2.4427c0.1-1.5792-0.573-2.9106-1.392-4.1751l2.209 0.2869v0.0028z" fill="#fff"/>
<path d="m244.91 62.975-0.541 1.5207-1.548-0.1253-0.083-1.3704c0.742-0.415 1.408-0.3258 2.172-0.025z" fill="#fff"/>
<path d="m229.37 45.138-1.842 1.6433-1.764-0.8133c-0.07-0.3788 0.497-0.4233 0.764-0.479 0.869-0.1839 1.942-0.2034 2.842-0.351z" fill="#fff"/>
<path d="m21.112 97.818 0.3196 1.348-3.0533-0.5571c-0.0861-0.6768 0-0.4428 0.3862-0.5877 0.4806-0.1782 1.9753-0.4373 2.3476-0.2061l-1e-4 0.0029z" fill="#fff"/>
<path d="m224.93 47.085 1.334 0.9721-1.475 2.0861 0.141-3.0582z" fill="#fff"/>
<path d="m221.04 75.773c-0.109-1.6183-0.197-3.4454 1.375-1.2701l-1.375 1.2701z" fill="#fff"/>
<path d="m137.95 113.14c1.825-0.518 1.053 1.134 0.353 2.036-3.267 4.203-9.51 8.974-14.005 11.851-1.031 0.661-5.94 3.78-6.687 3.894-1.089 0.167-1.698-0.504-0.825-1.403 0.872-0.9 4.739-2.708 6.123-3.605 3.406-2.206 7.026-4.757 9.996-7.517 0.808-0.752 4.695-5.156 5.045-5.256z"/>
<path d="m36.329 77.904c-11.477 11.364-29.304-5.5121-18.233-17.595 11.429-12.472 30.382 5.565 18.233 17.595zm-10.799-19.884c-13.155 1.8049-11.352 22.708 2.4198 21.931 14.933-0.8439 13.185-24.07-2.4198-21.931z"/>
<path d="m122.77 45.143c0.469-0.6712 3.062 1.0612 3.803 1.3203 3.712 1.3118 7.126 0.5542 10.494-1.2367l0.697 0.8857c-1.636 2.2561-5.843 2.8493-8.474 2.6404-1.169-0.0919-7.82-1.7519-6.52-3.6069v-0.0028z"/>
<path d="m132.39 39.197c-0.8 0.8774-2.884 0.9052-3.815 0.2005l0.275-1.1057c4.282 0.103 1.992-1.2617 1.123-3.3145-0.623-1.4706-1.217-4.6068-0.545-6.0607 0.309-0.6685 1.414-0.5236 1.623 0.2702 0.144 0.5431-0.281 1.4288-0.261 2.1613 0.016 0.61 0.241 1.7882 0.441 2.3675 0.595 1.7352 3.004 3.4565 1.159 5.4842v-0.0028z"/>
<path d="m139.24 36.144c1.831-0.142 2.323-2.7184 1.22-4.0274-3.879-2.1976-4.354 4.2698-1.22 4.0274z"/>
<path d="m121.17 36.178c2.665-0.6963 1.962-5.228-0.986-4.359-2.053 0.6044-1.322 4.5177 0.986 4.359z"/>
<path d="m142.44 29.78-5.334-0.5598-0.473-1.1865c1.826-0.947 4.357-0.507 6.007 0.6684l-0.197 1.0779h-3e-3z"/>
<path d="m117.25 28.735c0.047-0.0752 1.428-0.6768 1.622-0.7353 0.856-0.2534 4.229-0.6434 4.432 0.5933 0.23 1.401-2.245 0.6239-2.865 0.674-0.847 0.0724-2.553 1.3732-3.106 0.5626-0.155-0.2283-0.222-0.8745-0.086-1.0973l3e-3 0.0027z"/>
<path d="m29.405 103.69c0.714-0.167 3.1477-0.418 2.8171 0.869-0.2779 1.078-2.4837 0.635-3.3978 0.997-0.9418-0.688-0.4667-1.621 0.5807-1.866z"/>
<path d="m227.64 107.87c0.984-0.122 4.665 0.251 4.226 1.733-0.25 0.846-3.14-0.296-4.284-0.115-0.781 0.126-2.531 1.638-2.673 0.117-0.103-1.083 1.836-1.626 2.731-1.735z"/>
<path d="m67.889 36.949c9.7876-0.2284 9.3431-14.962-0.1861-14.826-9.8737 0.1421-9.507 15.052 0.1861 14.826zm-0.7084-13.197c-3.7505 0.4094-6.1037 4.4007-4.7146 7.9297 1.5475 3.9272 6.7816 4.8296 9.607 1.7268 3.5005-3.8464 0.2361-10.216-4.8924-9.6565z"/>
<path d="m67.18 23.753c5.1258-0.5598 8.3929 5.8101 4.8924 9.6565-2.8254 3.1028-8.0595 2.2004-9.607-1.7268-1.3891-3.5262 0.9641-7.5203 4.7146-7.9297z" fill="#fff"/>
</svg>
