<?xml version="1.0" encoding="UTF-8"?>
<svg viewBox="0 0 366 156" xmlns="http://www.w3.org/2000/svg">
<path d="m23.387 89.049c0.6121-0.6651 2.6928-1.0918 3.6139-1.1742 6.2536-0.565 12.902 0.2296 19.144 0.2796 20.453 0.1677 40.865 0.3885 61.332 0.5209 2.36 0.2266 3.176 1.5833 3.77 3.6197 5.421 18.573 8.225 38.643 13.534 57.334 0.595 4.903-6.415 3.943-9.664 3.902-18.926-0.238-37.975-1.13-56.907-1.663-5.4591-0.153-11.616 0.212-16.989-0.253-1.5421-0.132-3.5668-0.777-4.4614-2.107-5.2766-19.217-8.9758-38.952-13.949-58.293-0.1736-0.6268 0.153-1.7069 0.5798-2.1689l-3e-3 0.0029zm46.992 28.364c-0.3561-0.389 1.4715-1.892 0.4091-2.457l-1.2301 1.792c-5.1207-0.392-8.4667 5.521-5.8034 9.879 3.7463 6.127 12.79 4.408 12.81-3.108 0.0088-3.146-2.8841-6.883-6.186-6.109v3e-3z" fill="#fff"/>
<path d="m164.73 73.443c0.568 0.7063 0.689 4.7233 3.093 3.9229 1.327-0.4415 0.892-1.857 0.945-2.8958 3.481 3.7463 8.869 5.4414 13.925 4.8881 2.187-0.2384 2.046-0.9711 3.19-1.4744 0.56-0.2442 1.325 0.2737 2.361-0.7739 1.627-1.6422 1.751-9.8322 6.215-7.5309 2.749 1.4155 2.769 6.1418 1.589 8.6315-1.695 3.5697-4.847 3.6845-7.693 5.1677-2.198 1.1477-1.256 3.6492-1.915 5.1971-2.461 5.774-13.217 11.896-19.32 12.422-17.349 1.493-24.085-12.539-25.583-27.489-0.162-1.6275-0.471-4.7852-0.282-6.2949 0.117-0.9476 1.236-3.0341 1.686-4.0582 1.848-4.176 4.202-8.8875 7.622-11.936 1.674 8.2548 4.299 16.236 11.689 21.006 0.503 0.3266 2.316 1.0153 2.478 1.2154v0.0029zm-15.842-9.3348c-1.268-1.1183-6.53-0.7004-5.982 1.4685 0.45 0.5474 0.297 0.3384 0.685 0.1471 0.795-0.3884 1.53-1.0006 2.493-1.0888 1.145-0.106 1.816 0.6297 2.84 0.256l-0.036-0.7828zm-2.792 8.7639c-1.578 0.5415-0.462 5.4443 2.098 4.5644 1.539-0.5297 0.335-5.3972-2.098-4.5644zm6.389 1.3243c1.706 3.1136 0.011 5.309-0.251 8.1018-0.153 1.6244 1.198 3.5756 2.817 3.0929 1.707-0.5091-1.501-1.389-1.704-2.0894-0.3-1.0447 0.936-3.8964 0.947-5.3649 9e-3 -1.1889-0.164-3.9611-1.806-3.7375l-3e-3 -0.0029z" fill="#fff"/>
<path d="m197.37 90.065 2.275-0.7916c3.92 3.8817 3.958 9.1612 1.751 13.976-0.891 1.945-2.404 3.558-3.352 5.403-1.854 3.602-1.751 5.079-5.515 7.619-7.407 5-19.646 2.822-14.999-8.152 2.007-4.741 8.925-8.9579 14.043-7.475 2.363 0.686 2.681 2.172 5.385 0.086 2.278-1.7573 2.849-5.2799 1.91-7.9255-0.365-1.033-1.236-1.7069-1.498-2.7369v-3e-3zm-8.296 12.931c-2.492 0.014-6.168 3.743-7.257 5.85-1.627 3.149-1.992 7.934 1.734 9.656 1.194-1.077-0.624-1.422-1.192-2.36-2.234-3.676 1.18-9.144 4.42-11.092 1.154-0.692 2.304-0.892 3.47-1.451-0.306-0.359-0.683-0.609-1.175-0.606v3e-3z" fill="#fff"/>
<path d="m183.42 151.33c0.18-0.568 1.348-0.271 1.634-0.963 0.05-0.123 0.109-0.677-0.13-0.677-2.916 0.471-5.968 2.446-8.879 2.887-1.456 0.221-2.963 0.321-1.777-1.503 0.986-1.516 3.084-2.749 4.676-3.532 0.96-0.474 2.731-0.544 2.834-1.68-1.209-1.092-9.75 4.302-11.503 5.05-0.978 0.415-5.51 2.401-4.059-0.227 1.433-2.598 7.575-5.877 10.362-7.016 0.112-0.715-0.129-0.556-0.688-0.553-2.472 0.015-7.234 3.705-9.168 5.341-0.738 0.624-1.283 1.651-1.986 2.119-0.959 0.639-5.409 2.069-4.37-0.262 0.85-1.915 6.921-6.292 8.914-7.507 0.715-0.436 2.266-0.918 2.751-1.301 0.315-0.25 0.145-0.518 0.168-0.838-0.741-0.757-5.944 2.801-6.819 3.44-0.991 0.727-3.384 3.184-4.134 3.528-0.353 0.162-1.469 0.471-1.369-0.267 0.298-2.202 6.984-6.01 9.047-6.831 3.561-1.413 5.621-1.242 9.358-0.618 5.856 0.977 14.014 4.2 13.858 11.239l-0.409 0.412c-2.802 0.353-5.53 0.288-8.311-0.238v-3e-3z" fill="#fff"/>
<path d="m163.16 116.32c1.251-3.284 1.598-7.648 0.474-11-0.167-0.498-0.818-2.402-1.568-1.987 1.25 4.138 1.974 9.044-0.183 12.999-8.272 0.536-11.66-10.798-9.117-17.242 2.864 1.5475 6.148 2.7725 9.429 3.0195 1.163 0.088 4.456-0.4 5.05 0.424 0.274 0.379 0.621 1.707 0.762 2.245 1.172 4.467 0.874 10.856-4.844 11.542h-3e-3z" fill="#fff"/>
<path d="m200.38 151.61h-7.39c1.195-5.497-4.549-9.935-9.305-11.218-0.453-0.403 0.044-0.483 0.415-0.539 3.102-0.453 5.33 0.365 8.128 1.713 4.309 2.078 7.446 5.141 8.152 10.041v3e-3z" fill="#fff"/>
<path d="m69.24 117.45 0.4503 0.777c0.5945-0.921 2.0688-0.235 2.8752 0.141 7.1571 3.34 0.8358 15.618-6.5715 9.303-4.226-3.602-1.9276-9.518 3.246-10.221z" fill="#fff"/>
<path d="m296.93 152.4c-0.526-0.671-1.183-0.727-1.874-0.789l-0.071-6e-3c-1.286-0.117-2.916-0.07-4.352-0.032-0.504 0.015-0.992 0.026-1.448 0.032-8.699 0.121-17.561 0.074-26.127 0.033-2.319-0.012-4.641-0.024-6.963-0.033-2.287-9e-3 -4.615 0-6.866 6e-3 -2.437 9e-3 -4.95 0.018-7.428 6e-3 0.159-0.462 0.365-0.9 0.583-1.36 0.285-0.606 0.58-1.233 0.759-1.921 0.951-3.638 0.536-11.539-1.206-22.855-0.25-1.618-0.695-3.213-1.127-4.758-0.351-1.248-0.71-2.534-0.96-3.823 2.734 0.312 5.524 0.518 8.223 0.721 4.485 0.332 9.123 0.68 13.622 1.51 9.235 1.703 12.493 3.743 14.882 13.169 1.607 6.333 1.64 13.002 1.545 18.755v0.097l0.059 0.074c0.209 0.259 0.424 0.241 0.536 0.206 0.744-0.227 0.989-2.955 0.992-2.984 0.682-7.914-1.595-24.082-8.57-28.126-6.775-3.928-25.574-4.482-29.273-4.552-0.115 0-0.232-6e-3 -0.35-9e-3 -0.695-0.021-1.41-0.044-2.096 0.203-0.7-2.343-1.621-4.856-2.813-7.672l-0.279-0.665c-2.084-4.93-4.05-9.5881-8.123-13.255-5.824-5.2471-14.049-8.4078-23.207-8.9316 3.752-5.05 7.154-12.34 2.948-19.135-0.194-0.3119-0.532-0.7063-0.894-1.1271-0.492-0.5709-1.107-1.2831-1.169-1.6304-0.058-0.3207 0.253-1.6038 0.501-2.6339 0.25-1.03 0.509-2.0982 0.55-2.7104 0.391-5.4413-3.184-18.146-6.913-22.342-2.731-3.0754-7.372-4.7322-11.356-4.0701-1.772-3.1547-6.248-5.2295-9.818-5.6562-8.181-0.9859-26.206 3.5609-33.693 7.6692-2.849 1.5626-9.541 5.9181-10.179 12.601-0.059 0.6151-0.036 1.2449-0.012 1.857 0.026 0.718 0.056 1.4626-0.053 2.163-0.218 1.3949-0.774 2.7487-1.363 4.1818-0.85 2.0718-1.733 4.2172-1.58 6.6039 0.262 4.1494 4.073 9.4525 8.213 9.941 0.233 7.0747 1.958 19.664 10.707 26.916-2.516 1.2007-4.412 2.3927-6.098 3.8317-4.135 3.526-7.625 7.634-10.983 12.931-0.783 1.236-1.521 2.531-2.298 3.902-1.975 3.476-4.02 7.072-6.842 9.562-0.404 0.356-2.823 2.157-3.079 2.269-0.014 6e-3 -0.029 0.011-0.041 0.014-6e-3 -0.067-0.018-0.153-0.047-0.232-0.165-0.436-0.288-1.007-0.409-1.557-0.062-0.288-0.124-0.571-0.191-0.827-1.545-6.039-2.931-12.233-4.273-18.225-1.398-6.242-2.84-12.699-4.471-18.994l-0.014-0.0412c-1.466-3.246-4.038-3.1753-6.757-3.1047-0.662 0.0177-1.345 0.0353-2.022 0.0059-15.162-0.6798-30.812-0.7063-45.947-0.7357-5.9535-0.0118-12.11-0.0206-18.122-0.0736-1.1713-0.0088-2.5133-0.0942-3.9317-0.1825-3.8081-0.2383-8.1253-0.5091-11.127 0.5297-1.6804 0.5827-2.678 1.9659-2.5985 3.6139l0.0058 0.0442c0.674 2.9929 1.342 5.9887 2.013 8.9846 3.6933 16.527 7.5161 33.62 11.848 50.232l0.0354 0.077c2.0953 3.24 8.705 3.043 13.531 2.901 1.2125-0.035 2.2572-0.067 3.1018-0.041 5.8711 0.174 11.857 0.377 17.646 0.571 13.246 0.444 26.939 0.904 40.362 1.095 0.697 9e-3 1.389 0.015 2.077 0.015 7.996 0 15.368-0.648 23.134-1.331 1.266-0.112 2.543-0.223 3.841-0.335 1.877-0.162 3.799-0.277 5.656-0.392 4.144-0.253 8.429-0.515 12.552-1.274l0.211-0.038 0.027-1.313-32.542 2.979c0.673-0.992 0.915-2.069 0.806-3.535l31.192-1.633 1.041-1.454-33.39-1.533-2.907-12.875c1.039-0.097 2.001-0.895 2.79-1.551l0.188-0.156c3.793-3.123 6.304-7.516 8.731-11.766 1.681-2.94 3.417-5.98 5.542-8.505 2.225-2.642 7.104-7.433 10.115-9.185 0.515-0.3 1.468-0.7941 2.001-1.0148-1.607 4.7678-0.315 11.062 3.105 14.853 2.651 2.94 6.194 3.993 9.979 2.969 2.066-0.559 3.581-1.698 4.505-3.384 1.869-3.411 0.986-8.408-0.138-12.113l1.572-0.2c8e-3 1.342 0.609 2.702 1.639 3.69l0.109 0.106 0.147-0.041c6.739-1.928 13.243-7.4484 17.016-14.429 0.117 0.0235 0.241 0.05 0.37 0.0795 0.869 0.1854 1.946 0.4149 2.717 0.4149h6e-3c0.441 0 0.983-0.1059 1.559-0.2178 1.069-0.2089 2.281-0.4443 2.82 0.0353 0.909 0.8093 1.4 2.2808 1.315 3.9317-0.097 1.8305-0.856 3.4727-1.986 4.279-1.325 0.9503-2.04 0.6003-3.029 0.1177-0.556-0.2737-1.186-0.5797-2.007-0.6886-4.17-0.5503-9.093 1.3392-12.251 4.7052-0.206 0.221-0.477 0.624-0.765 1.051s-0.768 1.139-0.933 1.221c-0.895 0.442-3.381 0.459-4.326 0.136-0.065-0.024-0.262-0.147-0.421-0.25-0.7-0.448-1.186-0.724-1.515-0.504-0.174 0.118-0.236 0.327-0.183 0.63 0.121 0.665 0.618 1.204 1.442 1.554 1.195 0.509 2.955 0.541 4.105 0.141-1.789 5.306-0.67 9.432 3.111 11.377 2.525 1.301 5.957 1.466 9.417 0.454 3.632-1.06 6.698-3.226 8.635-6.095 0.736-1.092 1.027-1.96 1.306-2.802 0.171-0.509 0.345-1.036 0.621-1.618 0.568-1.195 1.23-2.143 1.869-3.055 1.154-1.648 2.243-3.208 2.79-6.051 0.915-4.7641-0.471-8.0248-2.861-11.409 2.346-2.0689 4.709-1.7069 7.684-1.2537l0.215 0.0323c10.286 1.5686 18.841 6.807 22.881 14.012 5.689 10.141 9.512 24.673 10.221 38.869 0.159 3.208 0.403 8.04-2.222 11.027l-38.446 0.041c0.25-0.876-0.106-1.868-0.4-2.689l-0.077-0.215c-1.904-5.389-8.266-8.202-11.518-9.317 2.657-1.207 6.224-2.19 9.105-2.49 1.213-0.127 2.469-0.138 3.682-0.147 1.453-0.012 2.957-0.027 4.429-0.236 0.874-0.123 1.554-0.247 2.154-0.356 1.348-0.244 2.325-0.418 4.379-0.418h0.021c1.924 0 3.843-3e-3 5.765-8e-3 2.507-6e-3 5.011-0.012 7.519-6e-3h0.1l0.076-0.065c0.256-0.224 0.233-0.444 0.194-0.556-0.238-0.712-2.739-0.945-3.499-0.998-1.733-0.121-3.487 9e-3 -5.179 0.133-1.46 0.108-2.964 0.217-4.45 0.167 0.212-0.097 0.465-0.182 0.642-0.238 0.115-0.038 0.221-0.074 0.306-0.106 2.881-1.104 6.268-2.131 9.564-1.354l0.398 0.094-0.262-1.397-0.15-0.05c-3.193-1.045-6.407 0.123-9.515 1.256-0.85 0.309-1.66 0.603-2.46 0.854v-5.251c0-0.103-0.05-0.191-0.209-0.482-0.203-0.368-0.544-0.983-0.65-1.457-1.704-7.557 0.144-18.725 6.921-24.535 0.327-0.279 1.104-0.709 1.619-0.991 0.565-0.312 0.659-0.368 0.721-0.454 0.156-0.2204 0.527-0.7354 0.218-1.0297-0.577-0.5503-3.129 1.2387-3.152 1.2597-6.492 5.135-8.791 15.836-8.176 23.605 0.092 1.159 0.348 2.322 0.592 3.449 0.447 2.045 0.909 4.161 0.415 6.339-2.763 1.056-5.718 1.148-8.576 1.236-1.783 0.056-3.625 0.112-5.415 0.4-2.062 0.333-4.384 1.124-6.63 1.889-2.854 0.974-5.806 1.981-8.231 2.046-1.236 0.032-2.549-0.224-3.938-0.495-1.948-0.379-3.967-0.771-6.15-0.485-3.129 0.412-10.533 4.761-12.349 7.666-0.559 0.895-0.747 1.616-0.576 2.198 0.176 0.606 0.706 0.874 0.982 1.007-0.061 0.138-0.156 0.3-0.25 0.468-0.406 0.706-1.018 1.774-0.097 2.698 1.16 1.163 2.934 0.554 4.108 0.15 0.401-0.138 0.854-0.291 0.992-0.262 0.036 0.021 0.1 0.139 0.144 0.218 0.112 0.206 0.265 0.486 0.577 0.642 1.99 1.003 5.115-0.571 7.181-1.613 0.118-0.059 0.232-0.118 0.344-0.174-0.109 1.21 0.124 2.031 0.709 2.502 1.228 0.989 3.623 0.068 5.736-0.742 1.062-0.409 2.066-0.794 2.637-0.806 0.853-0.018 2.092 0.215 3.399 0.465 1.286 0.244 2.613 0.497 3.711 0.53 5.839 0.176 11.872 0.056 17.707-0.059 3.905-0.077 7.949-0.162 11.848-0.147 8.214 0.023 16.56 0.123 24.629 0.217 15.453 0.186 31.43 0.377 47.087 0.033 0.738-0.015 1.521 9e-3 2.28 0.032 1.08 0.032 2.196 0.068 3.232-9e-3 0.091-6e-3 0.176-9e-3 0.261-9e-3 0.383-5e-3 0.813-0.011 1.154-0.532l0.106-0.159-0.118-0.15-3e-3 -3e-3zm-97.547-46.351c-0.415 0.598-0.839 1.207-1.213 1.84-0.124 0.212-0.244 0.423-0.356 0.638-0.427 0.827-0.75 1.545-1.036 2.178-0.962 2.134-1.545 3.42-4.391 5.341-0.15 0.103-0.303 0.201-0.459 0.298-0.05 0.029-0.1 0.058-0.15 0.091-0.106 0.065-0.212 0.126-0.321 0.188-0.059 0.033-0.12 0.068-0.179 0.1-0.1 0.056-0.2 0.109-0.303 0.162-0.062 0.032-0.127 0.065-0.189 0.097-0.103 0.05-0.203 0.1-0.306 0.15-0.061 0.03-0.123 0.059-0.185 0.089-0.109 0.05-0.221 0.097-0.333 0.144-0.056 0.023-0.109 0.047-0.164 0.07-0.145 0.059-0.289 0.115-0.436 0.171-0.024 9e-3 -0.044 0.018-0.068 0.027-0.17 0.061-0.341 0.123-0.515 0.179-0.038 0.012-0.079 0.024-0.117 0.038-0.133 0.042-0.262 0.083-0.395 0.121-0.056 0.018-0.112 0.032-0.167 0.047-0.118 0.032-0.236 0.065-0.354 0.094-0.058 0.015-0.117 0.03-0.176 0.044-0.118 0.03-0.233 0.056-0.35 0.08-0.056 0.012-0.115 0.023-0.171 0.035-0.124 0.027-0.247 0.047-0.371 0.071-0.05 9e-3 -0.097 0.017-0.147 0.026-0.15 0.024-0.3 0.047-0.447 0.068-0.024 3e-3 -0.045 6e-3 -0.068 9e-3 -0.177 0.023-0.353 0.041-0.53 0.059h-0.035c-0.156 0.014-0.315 0.026-0.471 0.032-0.047 0-0.097 3e-3 -0.144 6e-3 -0.121 6e-3 -0.239 9e-3 -0.359 0.012h-0.174c-0.106 0-0.215 0-0.321-3e-3 -0.032 0-0.067 0-0.1-3e-3 6e-3 -6e-3 9e-3 -0.012 0.015-0.018 0.05-0.056 0.097-0.112 0.135-0.165 0 0 6e-3 -6e-3 6e-3 -8e-3 0.039-0.056 0.071-0.112 0.097-0.168 6e-3 -9e-3 9e-3 -0.021 0.015-0.03 0.024-0.053 0.041-0.109 0.053-0.161 0-9e-3 3e-3 -0.021 6e-3 -0.03 9e-3 -0.056 0.015-0.112 0.012-0.168-0.021-0.453-0.427-0.753-0.857-1.074-0.297-0.221-0.609-0.45-0.774-0.724-0.697-1.147-0.859-2.592-0.467-4.179 0.615-2.492 2.633-5.247 4.796-6.548 0.648-0.388 1.289-0.615 1.969-0.853 0.483-0.171 0.98-0.344 1.48-0.583l0.312-0.147-0.223-0.262c-0.398-0.465-0.851-0.694-1.378-0.697-2.689 0.014-6.43 3.943-7.489 5.994-0.948 1.831-1.669 4.638-0.851 7.019 0.056 0.162 0.118 0.318 0.186 0.471 0.023 0.05 0.047 0.097 0.07 0.147 0.047 0.1 0.097 0.197 0.15 0.295 0.033 0.055 0.065 0.108 0.098 0.161 0.053 0.086 0.106 0.168 0.161 0.251 0.039 0.052 0.077 0.105 0.115 0.155 0.059 0.077 0.121 0.151 0.183 0.224 0.041 0.05 0.085 0.097 0.129 0.144 0.068 0.074 0.138 0.142 0.209 0.209 0.044 0.041 0.088 0.086 0.133 0.127 0.082 0.073 0.17 0.141 0.259 0.209 0.041 0.029 0.076 0.062 0.117 0.091 0.13 0.091 0.265 0.18 0.403 0.262-0.017 0-0.035-3e-3 -0.056-6e-3 -0.185-0.021-0.367-0.047-0.547-0.076-0.012 0-0.02-3e-3 -0.032-6e-3 -0.171-0.03-0.339-0.062-0.504-0.1-0.044-9e-3 -0.091-0.021-0.135-0.033-0.153-0.035-0.303-0.076-0.453-0.12-0.021-6e-3 -0.044-0.012-0.068-0.018-0.168-0.05-0.329-0.106-0.491-0.168-0.038-0.015-0.077-0.029-0.115-0.044-0.129-0.05-0.256-0.103-0.383-0.159-0.035-0.015-0.07-0.032-0.105-0.047-0.151-0.071-0.298-0.147-0.439-0.227-0.026-0.014-0.05-0.029-0.077-0.047-0.117-0.067-0.232-0.138-0.344-0.215-0.035-0.023-0.073-0.05-0.109-0.073-0.132-0.091-0.262-0.188-0.385-0.288-0.486-0.401-0.96-0.925-1.316-1.601-0.394-0.745-0.65-1.675-0.629-2.834 0.017-1.16 0.311-2.546 1.012-4.206 0.056-0.132 0.118-0.268 0.182-0.4 0.018-0.038 0.039-0.077 0.059-0.115 0.047-0.094 0.097-0.188 0.147-0.282 0.027-0.047 0.053-0.092 0.08-0.139 0.05-0.085 0.1-0.173 0.153-0.259 0.029-0.047 0.059-0.094 0.088-0.141 0.056-0.085 0.112-0.171 0.168-0.256 0.029-0.044 0.059-0.088 0.091-0.132 0.065-0.092 0.132-0.183 0.2-0.277 0.027-0.035 0.053-0.071 0.08-0.109 0.094-0.123 0.191-0.247 0.291-0.371 0 0 0-3e-3 3e-3 -6e-3 0.106-0.129 0.215-0.256 0.33-0.382 0.017-0.018 0.035-0.038 0.053-0.056 0.094-0.103 0.188-0.206 0.285-0.309 0.029-0.032 0.062-0.065 0.094-0.097 0.085-0.088 0.174-0.177 0.265-0.265 0.035-0.035 0.071-0.068 0.106-0.103 0.091-0.085 0.182-0.171 0.274-0.253 0.035-0.032 0.07-0.062 0.106-0.094 0.1-0.089 0.203-0.177 0.306-0.262 0.029-0.024 0.056-0.047 0.085-0.071 0.406-0.335 0.83-0.653 1.274-0.947 0.024-0.015 0.044-0.03 0.068-0.045 0.124-0.082 0.25-0.161 0.377-0.241 0.032-0.02 0.064-0.038 0.094-0.059 0.12-0.073 0.241-0.144 0.365-0.215 0.032-0.017 0.064-0.038 0.1-0.055 0.126-0.071 0.256-0.142 0.385-0.209 0.027-0.015 0.053-0.027 0.077-0.042 0.477-0.247 0.965-0.468 1.459-0.656 0.015-6e-3 0.03-0.012 0.048-0.018 0.144-0.055 0.291-0.106 0.435-0.156 0.032-0.011 0.068-0.02 0.1-0.032 0.13-0.044 0.262-0.082 0.392-0.121 0.038-0.011 0.076-0.023 0.114-0.032 0.13-0.035 0.259-0.071 0.389-0.103 0.035-9e-3 0.07-0.018 0.109-0.026 0.141-0.033 0.285-0.065 0.426-0.092 0.021-3e-3 0.045-8e-3 0.065-0.014 0.336-0.065 0.668-0.112 1.001-0.142 0.023 0 0.047-3e-3 0.073-6e-3 0.136-0.011 0.274-0.02 0.409-0.026 0.045 0 0.089 0 0.136-3e-3 0.106 0 0.215-3e-3 0.321 0 0.091 0 0.185 6e-3 0.276 9e-3 0.086 3e-3 0.168 6e-3 0.25 0.015 0.097 5e-3 0.195 0.017 0.292 0.029 0.076 9e-3 0.153 0.015 0.229 0.027 0.112 0.014 0.221 0.035 0.33 0.055 0.062 0.012 0.123 0.021 0.185 0.033 0.171 0.035 0.339 0.076 0.506 0.126 0.633 0.183 1.116 0.427 1.545 0.645 1.083 0.547 1.884 0.953 3.7-0.327 0.12-0.085 0.247-0.176 0.376-0.279 2.505-1.9339 2.899-5.6802 1.998-8.2228-0.182-0.518-0.479-0.9417-0.765-1.3508-0.259-0.3738-0.509-0.7298-0.656-1.133l1.875-0.6533c3.378 3.4431 3.958 8.3754 1.583 13.561-0.118 0.256-0.247 0.509-0.386 0.759-0.414 0.748-0.909 1.46-1.392 2.151h-2e-3zm-35.268 9.815c-0.177 0.05-0.362 0.091-0.55 0.124 1.224-3.503 1.356-7.676 0.32-10.757-0.429-1.277-0.868-1.989-1.347-2.175-0.203-0.079-0.412-0.064-0.604 0.042l-0.188 0.103 0.062 0.206c1.615 5.335 1.586 9.482-0.091 12.666-3.447 0.165-5.636-1.804-6.872-3.502-2.572-3.532-3.384-9.105-1.942-13.111 3.19 1.6867 6.389 2.6897 9.267 2.9077 0.35 0.026 0.859 3e-3 1.451-0.021 0.07-3e-3 0.147-6e-3 0.223-9e-3 0.386-0.017 0.833-0.032 1.269-0.029 0.871 6e-3 1.701 0.082 1.912 0.377 0.168 0.229 0.389 0.947 0.551 1.521 0.073 0.262 0.135 0.495 0.173 0.639 0.724 2.763 0.919 6.568-0.709 8.961-0.7 1.03-1.683 1.718-2.928 2.06l3e-3 -3e-3zm22.372-29.126c-0.03 0.4826-0.059 0.9417-0.159 1.3478-0.032 0.1354-0.074 0.2649-0.127 0.3855-2.375 5.5709-12.942 11.73-19.099 12.26-19.467 1.674-24.205-16.354-25.297-27.252-0.141-1.4097-0.474-4.7145-0.283-6.236 0.083-0.6651 0.739-2.0335 1.219-3.0312 0.173-0.362 0.332-0.6916 0.447-0.9535 1.784-4.0317 4.029-8.5255 7.213-11.533 1.648 7.9487 4.258 15.906 11.713 20.718 0.253 0.1648 0.789 0.4002 1.304 0.6298 0.053 0.0235 0.108 0.047 0.164 0.0735 0.398 0.1766 0.851 0.3826 0.951 0.465 0.103 0.1383 0.212 0.5032 0.321 0.8888 0.014 0.0559 0.029 0.1088 0.047 0.1648 0.017 0.0676 0.038 0.1353 0.056 0.203 0.285 1.0241 0.662 2.216 1.524 2.678 0.415 0.2208 0.895 0.2443 1.43 0.0648 1.233-0.4091 1.18-1.5421 1.136-2.4485v-0.0353c3.408 3.3343 8.585 5.05 13.679 4.4908 1.315-0.1442 1.848-0.4679 2.275-0.8093 0.061-0.047 0.117-0.0971 0.176-0.1471 0.233-0.1942 0.453-0.3796 0.818-0.5386 0.133-0.0588 0.306-0.0559 0.509-0.0559 0.486 3e-3 1.157 0.0089 1.934-0.774 0.562-0.5679 0.924-1.7421 1.345-3.1047 0.588-1.907 1.259-4.07 2.563-4.6203 0.565-0.2384 1.218-0.1589 1.998 0.2413 2.611 1.3449 2.614 5.874 1.472 8.2813-1.189 2.5073-3.14 3.2489-5.206 4.0347-0.78 0.2972-1.586 0.6033-2.369 1.0123-0.595 0.309-0.977 0.7093-1.23 1.1595-0.421 0.7475-0.474 1.6245-0.524 2.4367v3e-3zm-43.187 60.223-17.551 1.104-0.551-1.801c4.147-0.032 8.385 0.159 12.49 0.344 2.104 0.094 4.252 0.192 6.401 0.259l-0.789 0.094zm-18.779 2.72c0.118 0.991-0.085 1.757-0.618 2.33-0.267 0.289-0.606 0.521-0.997 0.704-1.698 0.788-4.385 0.68-6.451 0.594-0.365-0.015-0.709-0.029-1.027-0.038-0.106 0-0.209-6e-3 -0.306-6e-3 -12.248-0.156-24.747-0.589-36.833-1.009-6.5833-0.23-13.39-0.465-20.068-0.654-1.0918-0.029-2.2189-0.041-3.3608-0.041-1.0565 0-2.1188 9e-3 -3.1665 0.018-0.8799 6e-3 -1.7657 0.015-2.6515 0.017-2.6604 6e-3 -5.3237-0.029-7.7987-0.244-1.0653-0.091-2.4279-0.444-3.4108-1.142-0.3267-0.232-0.6121-0.503-0.8299-0.815-2.9164-10.63-5.3943-21.604-7.7898-32.216-1.9305-8.555-3.9288-17.404-6.1477-26.035-0.153-0.5503 0.1619-1.5303 0.5179-1.9158 0.5062-0.5474 2.3573-0.9918 3.4432-1.0889 3.2078-0.2914 6.5538-0.2178 9.8587-0.0765 0.8593 0.0382 1.7186 0.0765 2.5691 0.1206 1.6068 0.0795 3.2519 0.1589 4.8734 0.2031 0.6092 0.0176 1.2155 0.0294 1.8158 0.0353 7.8104 0.0647 15.615 0.1354 23.42 0.206 12.419 0.1148 25.262 0.2325 37.89 0.312 2.183 0.2089 2.951 1.4155 3.54 3.4284 2.772 9.4971 4.897 19.561 6.948 29.293 0.492 2.322 0.983 4.665 1.489 7.013 1.519 7.049 3.143 14.161 5.088 21.004l3e-3 3e-3zm59.691 1.48c0.394-0.094 0.883-0.209 1.083-0.695 0.056-0.135 0.129-0.606-0.038-0.859-0.077-0.118-0.2-0.182-0.336-0.182h-0.041c-1.474 0.241-2.993 0.859-4.461 1.459-1.466 0.598-2.979 1.216-4.415 1.433-0.412 0.062-1.665 0.254-1.868-0.064-0.039-0.059-0.121-0.303 0.353-1.033 0.741-1.142 2.322-2.331 4.57-3.438 0.259-0.126 0.591-0.226 0.945-0.329 0.912-0.271 1.948-0.58 2.036-1.563l0.012-0.132-0.097-0.089c-0.153-0.138-0.38-0.203-0.671-0.203-1.522 0-4.803 1.748-8.573 3.85-1.121 0.624-2.089 1.162-2.54 1.356l-0.079 0.036c-3.158 1.348-3.746 1.071-3.852 0.953-0.077-0.085-0.062-0.35 0.212-0.844 1.368-2.478 7.336-5.718 10.229-6.901l0.138-0.056 0.024-0.148c0.05-0.314 0.053-0.559-0.097-0.723-0.156-0.174-0.38-0.159-0.612-0.148-0.074 3e-3 -0.153 9e-3 -0.242 9e-3 -2.837 0.018-8.275 4.506-9.334 5.403-0.359 0.303-0.666 0.686-0.963 1.057-0.335 0.418-0.65 0.812-0.997 1.042-0.736 0.491-3.394 1.342-4.012 0.821-0.147-0.124-0.138-0.38 0.03-0.757 0.809-1.821 6.863-6.203 8.808-7.386 0.315-0.192 0.824-0.403 1.318-0.607 0.604-0.25 1.175-0.485 1.46-0.712 0.132-0.106 0.206-0.217 0.247-0.326 0.065-0.171 0.047-0.342 0.033-0.48-9e-3 -0.077-0.015-0.147-0.012-0.215v-3e-3l9e-3 -0.12-0.086-0.086c-1.039-1.056-7.101 3.37-7.163 3.414-0.429 0.315-1.097 0.927-1.801 1.577-0.886 0.815-1.892 1.742-2.286 1.922-0.315 0.144-0.839 0.238-0.974 0.138-0.027-0.02-0.027-0.082-0.021-0.129 0.271-1.987 6.713-5.759 8.882-6.619 3.44-1.365 5.45-1.233 9.217-0.603 6.648 1.109 13.699 4.547 13.637 10.865l-0.268 0.271c-2.563 0.315-5.02 0.271-7.484-0.133 0.03-5e-3 0.062-0.014 0.092-0.023h-0.012zm-0.347-11.001c0.097-0.023 0.217-0.041 0.276-0.05 2.902-0.426 4.962 0.236 7.976 1.69 4.649 2.242 7.257 5.364 7.957 9.537h-6.76c0.957-5.579-4.976-9.929-9.452-11.18l3e-3 3e-3z"/>
<path d="m37.119 153.01-0.0647-0.018c-2.9341-0.785-5.9564-0.426-8.8787-0.079-1.1154 0.132-2.269 0.271-3.3902 0.338-1.8423 0.112-3.6816 0.236-5.5238 0.356-2.4043 0.159-4.894 0.324-7.3396 0.465-1.1418 0.068-2.3337 0.047-3.5991 0.027-2.4249-0.038-4.9293-0.083-7.1394 0.521-0.07357 0.02-0.15597 0.032-0.23249 0.044-0.31783 0.05-0.79458 0.129-0.90347 0.718l-0.047086 0.262 0.26192 0.047c0.17069 0.029 0.33843 0.076 0.515 0.126 0.31489 0.089 0.64155 0.18 1.0065 0.18h0.03237c6.0653-0.085 12.231-0.571 18.193-1.042 2.7457-0.218 5.5856-0.441 8.3754-0.621 1.086-0.07 2.2366-0.067 3.352-0.07 1.6186 6e-3 3.296 0 4.8793-0.212 0.256-0.036 0.6857-0.091 0.7857-0.406 0.0618-0.189-0.0176-0.386-0.2324-0.589l-0.0501-0.047z"/>
<path d="m265.5 150.23c0.044 6e-3 0.089 6e-3 0.13 6e-3 0.853 0 1.003-0.895 1.095-1.439 0.02-0.127 0.041-0.25 0.067-0.356 0.977-4.064 3.561-18.973 3.028-22.919-0.256-1.887-1.565-4.809-3.572-5.089-0.147-0.02-0.592-0.082-0.73 0.236-0.156 0.359 0.212 0.815 1.518 1.88 0.109 0.089 0.189 0.153 0.206 0.168 1.178 1.43 1.16 3.976 1.042 5.771-0.217 3.343-0.894 6.86-1.551 10.262-0.568 2.949-1.153 5.997-1.436 8.902-0.056 0.574-0.047 1.154-0.041 1.71 0 0.2 6e-3 0.403 6e-3 0.603v0.242l0.238 0.023z"/>
<path d="m145.31 145.57 0.277 0.065 0.044-0.282c0.753-4.871 0.2-9.738-0.333-14.444-0.174-1.516-0.35-3.087-0.483-4.632-0.114-1.36-0.155-2.758-0.197-4.111-0.053-1.843-0.109-3.75-0.356-5.612l-9e-3 -0.068-0.041-0.056c-0.221-0.294-0.427-0.312-0.565-0.277-0.244 0.065-0.397 0.336-0.459 0.81-0.203 1.589-0.109 4.187-0.038 6.086l0.029 0.815c0.083 2.51 0.315 4.997 0.542 7.401 0.279 2.996 0.571 6.098 0.574 9.273 0 0.241-0.033 0.577-0.071 0.965-0.147 1.487-0.365 3.735 1.083 4.067h3e-3z"/>
<path d="m115.48 47.861 0.144 0.1324c0.344 0.3237 3.502 3.1313 3.908 3.3226 0.259 0.1206 0.542 0.1795 0.815 0.1795 0.359 0 0.707-0.103 0.974-0.3032 0.371-0.2766 0.536-0.7004 0.462-1.1889-0.097-0.6445-1.289-1.8275-2.442-2.8987l-0.062-0.0589c-0.318-0.2943-3.305-2.8958-3.634-3.0459-0.498-0.2295-1.181-0.2766-1.657-0.1147-0.503 0.1706-0.665 0.4767-0.715 0.7063-0.195 0.9123 1.08 2.2218 2.21 3.2636l-3e-3 0.0059z"/>
<path d="m108.01 54.841 0.059 0.0412 0.07 0.0059c0.839 0.0824 2.231 0.8417 3.576 1.5745 1.507 0.821 2.937 1.6009 3.837 1.6009 0.053 0 0.106 0 0.156-0.0088 0.362-0.0412 0.721-0.2973 0.936-0.6651 0.209-0.3561 0.25-0.7446 0.112-1.0712-0.544-1.2979-7.313-4.4409-8.487-4.2113l-0.044 0.0088-0.039 0.0236c-0.615 0.3678-0.965 0.8475-0.985 1.3507-0.015 0.3414 0.114 0.8535 0.812 1.3479l-3e-3 0.0029z"/>
<path d="m114.89 67.351c1.213-0.1383 1.795-0.821 1.837-1.4331 0.035-0.5151-0.312-1.1625-1.381-1.4332-0.938-0.2355-4.855-0.7475-5.691-0.674-0.553 0.0501-1.145 0.3944-1.586 0.9153l-0.027 0.0382c-0.274 0.4768-0.085 1.289 0.265 1.6216 0.559 0.5326 4.8 0.9741 6.239 0.9741 0.147 0 0.262-0.0059 0.344-0.0147v0.0058z"/>
<path d="m112.92 78.59h0.018c0.715 0 5.221-1.7745 5.748-2.1365 0.417-0.2884 1.233-1.1036 1.091-1.7893l-8e-3 -0.0324c-0.38-1.1183-1.072-1.027-1.872-0.9181-0.589 0.0794-5.165 1.8275-5.645 2.216-0.57 0.462-0.824 1.1771-0.629 1.7745 0.173 0.5297 0.644 0.8505 1.297 0.8829v0.0029z"/>
<path d="m140.51 138.56c0.28 0.824 0.621 1.836 1.657 1.836 0.071 0 0.147-6e-3 0.227-0.015l0.306-0.038-0.086-0.297c-1.08-3.764-3.993-7.561-7.422-9.671-0.091-0.056-0.185-0.114-0.276-0.176-0.621-0.398-1.325-0.848-2.169-0.733l-0.618 0.085 0.571 0.448c2.963 2.33 5.523 4.343 7.469 7.704 0.132 0.227 0.235 0.533 0.344 0.857h-3e-3z"/>
<path d="m126.24 97.837c0.394 0.671 0.804 1.3655 1.277 1.9629l0.145 0.1825 1.044-0.6328-0.062-0.1971c-0.726-2.3161-3.043-6.6127-6.553-6.339l-0.245 0.0206v1.2919l0.233 0.0265c2.133 0.2502 3.119 1.9217 4.161 3.6874v-0.0029z"/>
<path d="m125.17 92.01c0.585 0.409 1.189 0.8328 1.674 1.3684 0.206 0.2266 0.559 0.7681 0.93 1.342 1.086 1.6686 1.642 2.4455 2.101 2.4455 0.027 0 0.056 0 0.083-0.0088l0.062-0.0118 0.05-0.0382c0.5-0.3944 0.538-0.5062 0.388-1.1036-0.382-1.5156-4.42-6.6657-6.353-6.1977-0.257 0.0618-0.439 0.2148-0.501 0.4179-0.047 0.1559-0.05 0.4031 0.221 0.7033 0.347 0.3826 0.833 0.724 1.348 1.083h-3e-3z"/>
<path d="m128.1 131.56c-0.097-8e-3 -0.18-0.035-0.268-0.064-0.324-0.109-0.644-0.159-1.012 0.415l-0.18 0.279 0.312 0.115c0.674 0.247 1.342 0.468 1.99 0.68 2.336 0.774 4.546 1.504 6.542 3.237 0.156 0.135 0.276 0.332 0.406 0.538 0.259 0.418 0.571 0.922 1.262 0.922 0.103 0 0.215-0.012 0.339-0.036l0.312-0.062-0.118-0.294c-1.398-3.478-6.542-5.474-9.579-5.724l-6e-3 -6e-3z"/>
<path d="m130.62 93.205c0.347 0.7681 0.677 1.495 1.115 2.0482 0.192 0.2443 0.409 0.2943 0.598 0.2943 0.073 0 0.141-0.0088 0.206-0.0147 0.076-0.0088 0.15-0.0176 0.221-0.0118l0.12 0.0089 0.086-0.0854c0.771-0.7622-1.59-4.5497-1.616-4.585-0.524-0.7063-2.914-3.3814-4.197-2.5368l-0.07 0.0471-0.418 1.083 0.335 0.0442c2.057 0.2648 2.852 2.0129 3.617 3.7051l3e-3 0.0029z"/>
<path d="m74.181 118.14c-1.08-0.86-2.3131-1.225-3.5138-1.051 0.0618-0.123 0.153-0.274 0.2237-0.391 0.2796-0.462 0.5974-0.983 0.4679-1.454-0.0618-0.221-0.2119-0.397-0.4473-0.524l-0.209-0.112-1.2772 1.863c-2.369-0.129-4.5408 1.045-5.8298 3.152-1.3655 2.234-1.392 4.968-0.0648 7.139 1.6745 2.74 4.2613 3.844 6.5803 3.844 0.6563 0 1.289-0.088 1.8776-0.253 2.9782-0.833 4.8351-3.452 4.844-6.837 0.0059-1.957-1.0595-4.12-2.6486-5.382l-3e-3 6e-3zm1.2596 5.1c-0.0059 2.348-1.3891 4.623-3.3608 5.529-1.8393 0.845-3.9376 0.383-5.9123-1.297-1.7833-1.522-2.4926-3.647-1.8952-5.683 0.6239-2.128 2.4662-3.667 4.8323-4.05l0.5768 0.995 0.2354-0.365c0.4708-0.727 1.8157-0.1 2.5397 0.239 2.6074 1.215 2.99 3.422 2.987 4.632h-0.0029z"/>
<path d="m154.61 83.932c-0.356-0.2002-0.953-0.5386-1.003-0.7063-0.144-0.5062 0.153-1.6245 0.444-2.7045 0.25-0.93 0.506-1.8953 0.515-2.5868 9e-3 -1.0418-0.106-2.9017-0.983-3.6728-0.314-0.2766-0.694-0.3884-1.127-0.3296l-0.382 0.053 0.185 0.3384c1.136 2.0748 0.695 3.7287 0.227 5.4826-0.209 0.7858-0.427 1.5951-0.509 2.4662-0.1 1.0624 0.397 2.2689 1.206 2.934 0.418 0.3443 0.892 0.5209 1.372 0.5209 0.191 0 0.385-0.0294 0.576-0.0853 0.277-0.0824 0.648-0.2296 0.683-0.5651 0.05-0.4384-0.506-0.7504-1.206-1.1447h2e-3z"/>
<path d="m146.01 72.619c-0.432 0.1471-0.735 0.5592-0.853 1.1536-0.203 1.0389 0.179 2.681 1.148 3.5226 0.385 0.3355 0.821 0.5062 1.286 0.5062 0.223 0 0.456-0.0412 0.688-0.1206 0.974-0.3355 1.045-1.8511 0.612-3.1048-0.418-1.2154-1.424-2.4602-2.884-1.9599l3e-3 0.0029z"/>
<path d="m149.07 63.908c-1.021-0.9006-4.102-0.8917-5.589 0.0176-0.703 0.4297-0.997 1.0389-0.827 1.7157l0.015 0.0559 0.038 0.0471c0.215 0.2619 0.368 0.4503 0.56 0.4503 0.082 0 0.173-0.0383 0.279-0.1207 0.041-0.0353 0.091-0.0735 0.168-0.1118 0.235-0.1148 0.465-0.2472 0.686-0.3767 0.556-0.3237 1.083-0.6298 1.715-0.6857 0.459-0.0441 0.851 0.0706 1.227 0.1795 0.507 0.1472 1.03 0.2973 1.681 0.0648l0.182-0.0677-0.047-1.0918-0.085-0.0736-3e-3 -0.0029z"/>
</svg>
